<svg xmlns="http://www.w3.org/2000/svg" width="22.056" height="25.117" viewBox="0 0 22.056 25.117">
  <g id="clap" transform="translate(0)">
    <path id="Path_2600" data-name="Path 2600" d="M18.11,16.18l-4.65-4.66a1,1,0,0,1-.14-.49,1.07,1.07,0,0,1,.33-.77,1.1,1.1,0,0,1,1.54,0l2.7,2.7a2.1,2.1,0,0,0-.18,2.37Z" transform="translate(-5.48 -3.94)" fill="#7a54fc" fill-rule="evenodd"/>
    <path id="Path_2601" data-name="Path 2601" d="M25,26.65a5.32,5.32,0,0,1-3.52,1.72,6,6,0,0,0,.65-.58c3-3,3.59-6.2,1.77-9.55l-1.15-2-1-2.13A1.25,1.25,0,0,1,22,12.42a.89.89,0,0,1,.74-.17,1.46,1.46,0,0,1,1,.65l3,5.24C27.92,20.21,28.12,23.52,25,26.65Z" transform="translate(-5.48 -3.94)" fill="#7a54fc" fill-rule="evenodd"/>
    <path id="Path_2602" data-name="Path 2602" d="M15.33,1.11,13.39,3.44,13.75.41Z" fill="#7a54fc" fill-rule="evenodd"/>
    <path id="Path_2603" data-name="Path 2603" d="M11.9,0l-.83,2.7L10.23,0Z" fill="#7a54fc" fill-rule="evenodd"/>
    <path id="Path_2604" data-name="Path 2604" d="M8.75,3.44,6.81,1.12,8.38.39Z" fill="#7a54fc" fill-rule="evenodd"/>
    <path id="Path_2605" data-name="Path 2605" d="M21.55,27.22h0C18.3,30.45,13.93,29,11,26.11L5.81,20.87a1,1,0,0,1-.33-.77,1.1,1.1,0,0,1,.32-.78h0a1.1,1.1,0,0,1,1.54,0l2.72,2.73a.42.42,0,0,0,.28.12.43.43,0,0,0,.29-.12.42.42,0,0,0,0-.58L6.1,16.92a1.092,1.092,0,0,1,1.54-1.55L12,19.71a.38.38,0,0,0,.29.12.39.39,0,0,0,.3-.12.41.41,0,0,0,0-.58L8.22,14.8,7,13.57A1.1,1.1,0,0,1,8.54,12l1.22,1.22,4.35,4.35a.41.41,0,0,0,.53,0,.42.42,0,0,0,0-.58L10.3,12.65a1.08,1.08,0,0,1,0-1.54,1.1,1.1,0,0,1,1.54,0l7.3,7.29a.414.414,0,0,0,.67-.47l-1.41-3a1.25,1.25,0,0,1,.26-1.69.92.92,0,0,1,.74-.18,1.58,1.58,0,0,1,.95.66l2.77,4.87C24.83,21.67,24.3,24.48,21.55,27.22Z" transform="translate(-5.48 -3.94)" fill="#7a54fc" fill-rule="evenodd"/>
  </g>
</svg>
