<svg xmlns="http://www.w3.org/2000/svg" width="18.509" height="20.104" viewBox="0 0 18.509 20.104">
  <path id="clap_outline" data-name="clap outline" d="M18.637,10.741,16.383,6.776a1.117,1.117,0,0,0-.719-.5.694.694,0,0,0-.557.13.955.955,0,0,0-.2,1.276l.756,1.61.867,1.518c1.381,2.533.935,4.955-1.332,7.222a5.947,5.947,0,0,1-.5.44,4.045,4.045,0,0,0,2.663-1.3C19.734,14.81,19.579,12.3,18.637,10.741ZM14.766,17.6c2.075-2.075,2.478-4.2,1.226-6.485l-2.1-3.686a1.14,1.14,0,0,0-.719-.5.694.694,0,0,0-.557.136.947.947,0,0,0-.2,1.276L13.484,10.6a.31.31,0,0,1-.5.353L7.463,5.438A.826.826,0,1,0,6.293,6.6L9.575,9.886a.31.31,0,0,1-.44.434L5.853,7.037,4.93,6.114a.846.846,0,0,0-1.165,0,.83.83,0,0,0,0,1.171l.923.929,3.283,3.271a.313.313,0,0,1-.446.44L4.248,8.647A.826.826,0,0,0,3.084,9.818L4.465,11.2l2.056,2.056a.311.311,0,0,1-.44.44L4.025,11.633a.827.827,0,0,0-1.412.588.806.806,0,0,0,.248.582l3.958,3.964c2.187,2.187,5.488,3.283,7.941.836ZM8.646,5.736l3.518,3.518-.3-.644A1.588,1.588,0,0,1,12,6.82L9.953,4.776a.83.83,0,0,0-1.412.582.805.805,0,0,0,.105.378Zm9.161,11.88a4.621,4.621,0,0,1-3.97,1.431,4.906,4.906,0,0,1-2.273.557,7.638,7.638,0,0,1-5.178-2.4L2.421,13.237a1.449,1.449,0,0,1,.768-2.447l-.539-.539a1.44,1.44,0,0,1,.768-2.44l-.087-.087a1.449,1.449,0,0,1,0-2.044,1.48,1.48,0,0,1,2.044,0l.087.087A1.443,1.443,0,0,1,7.909,5l.056.056a1.435,1.435,0,0,1,.384-.719,1.449,1.449,0,0,1,2.044,0l2.094,2.1a1.344,1.344,0,0,1,.787-.105,1.63,1.63,0,0,1,.9.471,1.453,1.453,0,0,1,.557-.88,1.313,1.313,0,0,1,1.034-.248,1.734,1.734,0,0,1,1.146.774l2.261,3.983C20.223,12.184,20.428,15,17.807,17.616ZM8.95.3,7.761.849,9.229,2.6,8.95.3ZM14.2.842,13.013.31,12.741,2.6,14.2.842Zm-3.221,1.2L10.35,0h1.264Z" transform="translate(-1.75 0.25)" fill="#718398" stroke="#718398" stroke-width="0.5" fill-rule="evenodd"/>
</svg>
