<svg xmlns="http://www.w3.org/2000/svg" width="23.571" height="24" viewBox="0 0 23.571 24">
  <g id="XMLID_100_" transform="translate(-0.5)">
    <path id="XMLID_99_" d="M17,24C11.2,24,6.5,18.627,6.5,12S11.2,0,17,0,27.5,5.373,27.5,12,22.8,24,17,24" transform="translate(-3.429)" fill="#ffd949"/>
    <path id="XMLID_132_" d="M3.071,12C3.071,5.871,7.094.818,12.286.093A9.312,9.312,0,0,0,11,0C5.2,0,.5,5.373.5,12S5.2,24,11,24a9.312,9.312,0,0,0,1.286-.093C7.094,23.182,3.071,18.129,3.071,12" fill="#f4bf1a"/>
    <path id="XMLID_115_" d="M19.7,24.782h-.037a7.638,7.638,0,0,1-.9-.053.429.429,0,1,1,.1-.851,6.748,6.748,0,0,0,.8.047.445.445,0,0,1,.447.429.413.413,0,0,1-.41.429m2.492-.462a.429.429,0,0,1-.151-.83,7.047,7.047,0,0,0,.731-.324.428.428,0,1,1,.391.762,7.966,7.966,0,0,1-.82.364.421.421,0,0,1-.151.028m-5.8-.327a.426.426,0,0,1-.194-.047,8.17,8.17,0,0,1-.775-.449.429.429,0,1,1,.47-.717,7.256,7.256,0,0,0,.693.4.429.429,0,0,1-.194.811m8.619-1.525a.429.429,0,0,1-.3-.73,8.063,8.063,0,0,0,.539-.6.429.429,0,1,1,.665.541c-.189.232-.389.456-.6.663a.429.429,0,0,1-.3.127m-11.236-.6a.429.429,0,0,1-.332-.156c-.186-.227-.365-.467-.531-.714a.429.429,0,1,1,.711-.48c.151.225.314.443.483.649a.428.428,0,0,1-.331.7m13.12-2.2a.429.429,0,0,1-.393-.6c.108-.246.206-.5.292-.758a.429.429,0,1,1,.813.273c-.094.28-.2.558-.318.827a.43.43,0,0,1-.393.258m-14.754-.757a.43.43,0,0,1-.406-.291c-.095-.278-.179-.564-.25-.85a.428.428,0,0,1,.831-.207c.066.263.143.525.23.78a.429.429,0,0,1-.267.544.421.421,0,0,1-.138.024m15.564-2.527h-.033a.429.429,0,0,1-.394-.461c.02-.26.03-.525.03-.788a.441.441,0,0,1,.429-.442.417.417,0,0,1,.429.414v.028c0,.285-.011.572-.033.854a.429.429,0,0,1-.427.4m-16.112-.816a.425.425,0,0,1-.429-.424v-.009c0-.292.012-.586.034-.873a.429.429,0,0,1,.855.068c-.021.265-.032.536-.032.805a.433.433,0,0,1-.429.433m15.83-2.556a.428.428,0,0,1-.415-.324c-.066-.264-.144-.526-.231-.78a.429.429,0,0,1,.811-.278c.1.277.18.562.252.848a.429.429,0,0,1-.311.52.4.4,0,0,1-.105.013m-15.287-.779a.43.43,0,0,1-.406-.567c.095-.279.2-.557.32-.826a.429.429,0,0,1,.786.343c-.108.247-.207.5-.294.758a.429.429,0,0,1-.406.291M26.053,9.917a.428.428,0,0,1-.355-.189c-.152-.224-.315-.442-.484-.648a.429.429,0,1,1,.662-.545c.186.227.366.466.532.713a.429.429,0,0,1-.354.669M13.764,9.265a.429.429,0,0,1-.331-.7c.189-.231.39-.454.6-.662a.429.429,0,0,1,.608.6c-.187.188-.369.39-.541.6a.426.426,0,0,1-.332.157m9.892-1.727a.424.424,0,0,1-.233-.069,7.29,7.29,0,0,0-.7-.4.429.429,0,0,1,.387-.765,8.044,8.044,0,0,1,.776.447.429.429,0,0,1-.234.788m-7.278-.407a.429.429,0,0,1-.2-.81A7.921,7.921,0,0,1,17,5.959a.428.428,0,1,1,.3.8,7.014,7.014,0,0,0-.732.323.424.424,0,0,1-.194.047m4.117-.75a.394.394,0,0,1-.05,0,6.775,6.775,0,0,0-.78-.045.437.437,0,0,1-.438-.429.421.421,0,0,1,.42-.429h.018a7.622,7.622,0,0,1,.879.051.428.428,0,0,1-.049.854" transform="translate(-6.095 -3.129)" fill="#f4bf1a"/>
    <path id="XMLID_114_" d="M3.071,29H.5c.009.288.025.574.051.857H3.124q-.04-.424-.053-.857" transform="translate(0 -16.571)" fill="#dca815"/>
    <path id="XMLID_113_" d="M3.2,24H.626c-.036.282-.061.569-.079.857H3.118c.018-.288.042-.575.078-.857" transform="translate(-0.027 -13.714)" fill="#dca815"/>
    <path id="XMLID_112_" d="M3.619,34H1.047q.084.435.193.857H3.811Q3.7,34.435,3.619,34" transform="translate(-0.313 -19.429)" fill="#dca815"/>
    <path id="XMLID_111_" d="M5.016,39H2.443c.109.292.23.577.359.857H5.374q-.193-.419-.357-.857" transform="translate(-1.11 -22.286)" fill="#dca815"/>
    <path id="XMLID_110_" d="M4.045,19H1.477c-.084.282-.162.567-.227.857H3.824c.065-.29.138-.576.221-.857" transform="translate(-0.429 -10.857)" fill="#dca815"/>
    <path id="XMLID_109_" d="M5.807,14H3.235c-.141.279-.275.564-.4.857H5.412q.183-.438.395-.857" transform="translate(-1.337 -8)" fill="#dca815"/>
    <path id="XMLID_108_" d="M9.486,8H6.911q-.366.409-.7.857H8.79q.33-.448.7-.857" transform="translate(-3.266 -4.571)" fill="#dca815"/>
    <path id="XMLID_107_" d="M14.846,3H12.269a10.306,10.306,0,0,0-1.258.857h2.575A10.325,10.325,0,0,1,14.846,3" transform="translate(-6.006 -1.714)" fill="#dca815"/>
    <path id="XMLID_106_" d="M8.089,45H5.516q.3.446.631.857H8.721q-.333-.411-.633-.857" transform="translate(-2.866 -25.714)" fill="#dca815"/>
    <path id="XMLID_105_" d="M9.832,50a10.63,10.63,0,0,0,1.082.857h2.577A10.545,10.545,0,0,1,12.4,50Z" transform="translate(-5.333 -28.571)" fill="#dca815"/>
  </g>
</svg>
