<svg id="Group_589" data-name="Group 589" xmlns="http://www.w3.org/2000/svg" xmlns:xlink="http://www.w3.org/1999/xlink" width="552.8" height="929.762" viewBox="0 0 552.8 929.762">
  <defs>
    <radialGradient id="radial-gradient" cx="3.119" cy="20.522" r="22.561" gradientTransform="translate(0.224) scale(0.552 1)" gradientUnits="objectBoundingBox">
      <stop offset="0" stop-color="#3a0a60"/>
      <stop offset="0" stop-color="#3c3795"/>
      <stop offset="0.46" stop-color="#6100ad"/>
      <stop offset="1" stop-color="#8133bd"/>
    </radialGradient>
    <radialGradient id="radial-gradient-2" cx="2.434" cy="8.53" r="9.499" gradientTransform="translate(-0.007) scale(1.014 1)" xlink:href="#radial-gradient"/>
    <radialGradient id="radial-gradient-3" cx="2.215" cy="1.944" r="2.199" gradientTransform="translate(-1.494) scale(3.988 1)" xlink:href="#radial-gradient"/>
    <radialGradient id="radial-gradient-4" cx="1.287" cy="1.906" r="2.196" gradientTransform="translate(-0.993) scale(2.986 1)" xlink:href="#radial-gradient"/>
    <radialGradient id="radial-gradient-5" cx="2.936" cy="4.615" r="5.542" gradientTransform="translate(-1.321) scale(3.643 1)" xlink:href="#radial-gradient"/>
    <radialGradient id="radial-gradient-6" cx="0.747" cy="4.183" r="6.995" gradientTransform="translate(-0.164) scale(1.328 1)" xlink:href="#radial-gradient"/>
    <radialGradient id="radial-gradient-7" cx="1.354" cy="6.052" r="7.745" gradientTransform="translate(-0.299) scale(1.598 1)" xlink:href="#radial-gradient"/>
    <radialGradient id="radial-gradient-8" cx="0.465" cy="7.669" r="12.309" gradientTransform="translate(-0.005) scale(1.01 1)" xlink:href="#radial-gradient"/>
    <radialGradient id="radial-gradient-9" cx="0.951" cy="7.728" r="9.891" gradientTransform="translate(-0.135) scale(1.27 1)" xlink:href="#radial-gradient"/>
    <radialGradient id="radial-gradient-10" cx="3.718" cy="-0.384" r="0.449" gradientTransform="translate(-3.255) scale(7.51 1)" xlink:href="#radial-gradient"/>
    <radialGradient id="radial-gradient-11" cx="2.409" cy="-0.889" r="1.842" gradientTransform="translate(0.123) scale(0.754 1)" xlink:href="#radial-gradient"/>
    <radialGradient id="radial-gradient-12" cx="2.105" cy="-0.463" r="0.783" gradientTransform="translate(-0.276) scale(1.552 1)" xlink:href="#radial-gradient"/>
    <radialGradient id="radial-gradient-13" cx="1.618" cy="-0.201" r="0.287" gradientTransform="translate(-1.316) scale(3.632 1)" xlink:href="#radial-gradient"/>
    <radialGradient id="radial-gradient-14" cx="0.832" cy="-3.397" r="1.076" gradientTransform="translate(-0.006) scale(1.011 1)" xlink:href="#radial-gradient"/>
    <radialGradient id="radial-gradient-15" cx="1.594" cy="-1.457" r="1.031" gradientTransform="translate(-0.486) scale(1.973 1)" xlink:href="#radial-gradient"/>
    <radialGradient id="radial-gradient-16" cx="0.407" cy="-2.809" r="1.068" gradientTransform="translate(-0.081) scale(1.161 1)" xlink:href="#radial-gradient"/>
    <radialGradient id="radial-gradient-17" cx="0.822" cy="-1.552" r="1.097" gradientTransform="translate(-0.205) scale(1.41 1)" xlink:href="#radial-gradient"/>
    <radialGradient id="radial-gradient-18" cx="0.573" cy="-2.579" r="1.823" gradientTransform="translate(-0.089) scale(1.178 1)" xlink:href="#radial-gradient"/>
    <radialGradient id="radial-gradient-19" cx="0.495" cy="0.5" r="0.398" gradientTransform="translate(-0.474) scale(1.949 1)" xlink:href="#radial-gradient"/>
  </defs>
  <g id="Group_121" data-name="Group 121">
    <path id="Path_344" data-name="Path 344" d="M3116.212,232.211a443.823,443.823,0,0,0-150.021,74.77A112.942,112.942,0,0,1,3074.6,224.13a110.514,110.514,0,0,1,41.616,8.082Z" transform="translate(-2961.738 -224.13)" fill="url(#radial-gradient)"/>
    <path id="Path_345" data-name="Path 345" d="M3159.276,242.036c-76.312,35.038-143.018,99.21-193.967,183.368V349.956c53.222-57.106,113.96-99.064,179.059-121.326A115.473,115.473,0,0,1,3159.276,242.036Z" transform="translate(-2965.119 -206.852)" fill="url(#radial-gradient-2)"/>
    <path id="Path_346" data-name="Path 346" d="M3050.764,930.733A903.38,903.38,0,0,0,3114.544,1084c-3.876-2.033-7.74-4.162-11.518-6.387a279.578,279.578,0,0,1-100.905-102.745,283.188,283.188,0,0,1-36.771-139.811V538.688c36.008-135.891,108.148-245.6,204.8-304.547a106.56,106.56,0,0,1,8.328,13.936C3021.243,374.871,2963.176,651.35,3050.764,930.733Z" transform="translate(-2964.962 -185.697)" fill="url(#radial-gradient-3)"/>
    <path id="Path_347" data-name="Path 347" d="M3272.145,1066.509a272.853,272.853,0,0,1-105.941,24.873l-.851-1.159a893.2,893.2,0,0,1-95.405-158.493c-123.983-263.462-105-543.766,31.462-691.37a110.539,110.539,0,0,1,4.846,21.971c-89.534,137.3-90.265,348.976.523,553.784a51.223,51.223,0,0,0,15.731,33.633,913.336,913.336,0,0,0,52.856,92.675q24.185,37.119,50.807,70.657Q3248.371,1041.1,3272.145,1066.509Z" transform="translate(-2881.461 -161.815)" fill="url(#radial-gradient-4)"/>
    <path id="Path_348" data-name="Path 348" d="M3099.289,591.123h-62.144c-38.271-120.988-40.794-240.04-5.614-337.263v95.919h10.885C3042.323,426.824,3061.782,509.529,3099.289,591.123Z" transform="translate(-2806.164 -109.982)" fill="url(#radial-gradient-5)"/>
    <path id="Path_349" data-name="Path 349" d="M3233.056,537.517c-2.327,4.838-4.84,9.243-7.309,13.745a278.924,278.924,0,0,1-46.212,60.445l-10.264-9.681q-31.021-29.615-60.019-62.913l-4.835-5.614a904.516,904.516,0,0,1-72.589-97.658v-.293a54.512,54.512,0,0,0,5.468-23.906l-.011-1.113a113.818,113.818,0,0,1,21.885-66.058,850.487,850.487,0,0,0,85.026,108.7,892.6,892.6,0,0,0,63.829,62.911l5.526,4.841C3219.991,526.484,3226.527,532.048,3233.056,537.517Z" transform="translate(-2709.718 237.913)" fill="url(#radial-gradient-6)"/>
    <path id="Path_350" data-name="Path 350" d="M3171.62,500.477a116.091,116.091,0,0,1-56.612,14.517h-3.625c-50.539-78.979-81.8-161.927-90.744-241.344H3051.8C3070.774,351.082,3111.8,428.948,3171.62,500.477Z" transform="translate(-2752.677 -33.999)" fill="url(#radial-gradient-7)"/>
    <path id="Path_351" data-name="Path 351" d="M3198.833,448.454a279.339,279.339,0,0,1-2.622,38.227q-11.985-9.191-23.46-18.725-33.105-27.345-62.39-56.866a816.9,816.9,0,0,1-61.942-69.639,111.266,111.266,0,0,1,80.71,1.984,113.976,113.976,0,0,1,69.693,105.018Z" transform="translate(-2646.033 200.909)" fill="url(#radial-gradient-8)"/>
    <path id="Path_352" data-name="Path 352" d="M3182.417,410.154a119.733,119.733,0,0,1-19.786,52.508c-58.749-58.074-102.884-122.438-128.971-188.982h33.9A532.214,532.214,0,0,0,3182.417,410.154Z" transform="translate(-2702.696 -33.884)" fill="url(#radial-gradient-9)"/>
    <path id="Path_353" data-name="Path 353" d="M3071.508,625.525H3065.9s-.3,172.043-.256,173.157c-90.783-204.808-90.058-416.487-.528-553.783a109.626,109.626,0,0,1,.784,13.164v30.2C3030.818,385.729,3033.326,504.393,3071.508,625.525Z" transform="translate(-2840.521 -144.384)" fill="url(#radial-gradient-10)"/>
    <path id="Path_354" data-name="Path 354" d="M3144.327,239.5c-64.908,22.262-125.82,64.22-179.059,121.326V331.4a112.115,112.115,0,0,1,4.246-30.829A443.867,443.867,0,0,1,3119.537,225.8a108.591,108.591,0,0,1,24.773,13.7Z" transform="translate(-2965.268 -217.718)" fill="url(#radial-gradient-11)"/>
    <path id="Path_355" data-name="Path 355" d="M3170.106,244.661c-96.789,58.945-168.8,168.655-204.8,304.548V414.768c50.949-84.158,117.655-148.33,193.967-183.368A99.661,99.661,0,0,1,3170.106,244.661Z" transform="translate(-2965.119 -196.217)" fill="url(#radial-gradient-12)"/>
    <path id="Path_356" data-name="Path 356" d="M3213.4,1103.19a13.2,13.2,0,0,1-1.063,1.211h-6.29a272.534,272.534,0,0,1-127.134-31.41,901.09,901.09,0,0,1-63.578-153.313c-87.425-279.383-29.347-555.863,127.7-682.658a110.71,110.71,0,0,1,6.623,16.165c-136.461,147.6-155.43,427.907-31.44,691.367A893.381,893.381,0,0,0,3213.4,1103.19Z" transform="translate(-2929.52 -174.64)" fill="url(#radial-gradient-13)"/>
    <path id="Path_357" data-name="Path 357" d="M3243.764,539.447a277.359,277.359,0,0,1-54.736,42.3,266.716,266.716,0,0,1-24.174,12.775q-23.834-25.409-46.087-53.236-26.679-33.538-50.812-70.655a919.122,919.122,0,0,1-52.855-92.677,47.6,47.6,0,0,0,11.245,8.131l2.175,1.16a49.41,49.41,0,0,0,48.4-2.469,10.237,10.237,0,0,0,1.531-1.013l.545-.341a52.742,52.742,0,0,0,17.083-20.133v.29a900.6,900.6,0,0,0,72.594,97.662l4.846,5.613q29.017,33.49,60,62.914Z" transform="translate(-2773.949 310.172)" fill="url(#radial-gradient-14)"/>
    <path id="Path_358" data-name="Path 358" d="M3136.452,515.025H3070.9c-37.512-81.592-56.982-164.3-56.791-241.345h31.614C3054.674,353.1,3086.185,436.044,3136.452,515.025Z" transform="translate(-2777.754 -33.884)" fill="url(#radial-gradient-15)"/>
    <path id="Path_359" data-name="Path 359" d="M3238.148,481.355a281.239,281.239,0,0,1-26.861,87.837c-6.535-5.469-13.076-11.035-19.355-16.7l-5.527-4.84q-33.448-29.832-63.828-62.914a851.717,851.717,0,0,1-85.027-108.7,112.543,112.543,0,0,1,52.938-39.826,819.289,819.289,0,0,0,61.942,69.639,831.085,831.085,0,0,0,62.39,56.864Q3225.955,472.111,3238.148,481.355Z" transform="translate(-2687.76 206.237)" fill="url(#radial-gradient-16)"/>
    <path id="Path_360" data-name="Path 360" d="M3187.9,462.662a120.44,120.44,0,0,1-40.984,37.7c-59.823-71.527-101.058-149.394-119.836-226.681h31.849C3085.011,340.223,3129.146,404.732,3187.9,462.662Z" transform="translate(-2727.962 -33.884)" fill="url(#radial-gradient-17)"/>
    <path id="Path_361" data-name="Path 361" d="M3156.452,394.337a113.83,113.83,0,0,1-1.068,15.779A532.669,532.669,0,0,1,3040.7,273.69,119.773,119.773,0,0,1,3156.452,394.337Z" transform="translate(-2675.662 -33.845)" fill="url(#radial-gradient-18)"/>
    <path id="Path_382" data-name="Path 382" d="M3050.935,359.857a50.454,50.454,0,0,1-5.314,22.651,51.192,51.192,0,0,1-17.29,19.84,52.815,52.815,0,0,0,17.089-20.131,54.533,54.533,0,0,0,5.461-23.906A14.63,14.63,0,0,1,3050.935,359.857Z" transform="translate(-2723.162 291.05)" opacity="0.28" fill="url(#radial-gradient-19)"/>
  </g>
</svg>
