<svg xmlns="http://www.w3.org/2000/svg" width="24.478" height="26.054" viewBox="0 0 24.478 26.054">
  <g id="Group_1197" data-name="Group 1197" transform="translate(-261 -939)">
    <path id="Path_1494" data-name="Path 1494" d="M95.718.395A.4.4,0,0,0,95.324,0H77.953a.4.4,0,0,0-.395.395V14.087l1.579,1.121,5.275,3.743h.008l2.219-1.579,2.226,1.579,5.275-3.743,1.579-1.121V.395Z" transform="translate(186.601 939)" fill="#e6e9ed"/>
    <path id="Path_1495" data-name="Path 1495" d="M15.487,181.123l3.159,2.243v-5.011S15.487,180.191,15.487,181.123Z" transform="translate(245.513 769.722)" fill="#f6bb42"/>
    <path id="Path_1496" data-name="Path 1496" d="M123.2,31.035H108.99a.4.4,0,0,0-.395.395V44.664l5.275,3.743h.008l2.219-1.579,2.226,1.579,5.275-3.743V31.43A.4.4,0,0,0,123.2,31.035Z" transform="translate(157.143 909.544)" fill="#f5f7fa"/>
    <g id="Group_1176" data-name="Group 1176" transform="translate(269.291 952.029)">
      <path id="Path_1497" data-name="Path 1497" d="M185.926,256.044h-7.105a.395.395,0,0,0,0,.79h7.105a.395.395,0,1,0,0-.79Z" transform="translate(-178.426 -256.044)" fill="#656d78"/>
      <path id="Path_1498" data-name="Path 1498" d="M213.8,287.082h-3.948a.395.395,0,1,0,0,.79H213.8a.395.395,0,1,0,0-.79Z" transform="translate(-207.882 -285.503)" fill="#656d78"/>
    </g>
    <path id="Path_1499" data-name="Path 1499" d="M36.806,235.071l-1.579,1.121-5.273,3.743H25.5l-5.275-3.743-1.579-1.121-3.159-2.243v12.634a1.566,1.566,0,0,0,.546,1.184h0l0,0a1.55,1.55,0,0,0,.942.384h21.51a1.526,1.526,0,0,0,.506-.119H39a1.568,1.568,0,0,0,.962-1.453V232.828Z" transform="translate(245.513 718.02)" fill="#ffce54"/>
    <g id="Group_1177" data-name="Group 1177" transform="translate(261.102 950.848)">
      <path id="Path_1500" data-name="Path 1500" d="M41.764,369.4l-9.227-6.544-.685.487H27.4l-.685-.486-9.226,6.539a1.562,1.562,0,0,0,.444.657h0s0,0,0,0a1.55,1.55,0,0,0,.942.384h21.51a1.528,1.528,0,0,0,.506-.119H40.9A1.561,1.561,0,0,0,41.764,369.4Z" transform="translate(-17.487 -356.236)" fill="#f6bb42"/>
      <path id="Path_1501" data-name="Path 1501" d="M437.948,233.95v11.513a1.568,1.568,0,0,1-.962,1.453h-.008a1.529,1.529,0,0,1-.506.119h1.579a1.526,1.526,0,0,0,.506-.119h.008a1.568,1.568,0,0,0,.962-1.453V232.829Z" transform="translate(-415.151 -232.829)" fill="#f6bb42"/>
    </g>
    <path id="Path_1502" data-name="Path 1502" d="M404.59,0h-1.185V15.208l1.579-1.121V.395h0A.4.4,0,0,0,404.59,0Z" transform="translate(-122.665 939)" fill="#dadde1"/>
    <path id="Path_1503" data-name="Path 1503" d="M46.523,182.244l1.579,1.121v-5.011s-.79.459-1.579,1.035Z" transform="translate(216.056 769.722)" fill="#dca746"/>
    <path id="Path_1504" data-name="Path 1504" d="M437.6,181.252l-3.159,2.243v-5.011S437.6,180.32,437.6,181.252Z" transform="translate(-152.123 769.6)" fill="#f6bb42"/>
    <path id="Path_1505" data-name="Path 1505" d="M436.021,182.373l-1.579,1.121v-5.011s.79.459,1.579,1.035Z" transform="translate(-152.123 769.6)" fill="#dca746"/>
    <path id="Path_1506" data-name="Path 1506" d="M40.107,344.647l-1.93-1.355h0a.394.394,0,0,0-.592,0h0l-1.922,1.355h-.008l-9.468,6.712a1.608,1.608,0,0,0,.947.387h21.51a1.528,1.528,0,0,0,.506-.119h.008a1.837,1.837,0,0,0,.418-.268Z" transform="translate(235.359 613.304)" fill="#ffce54"/>
    <path id="Path_1507" data-name="Path 1507" d="M192.624,93.982a2.082,2.082,0,0,0-2.944,0,2.083,2.083,0,0,0-2.946,2.946l2.674,2.668h0a.393.393,0,0,0,.54,0h0l2.675-2.669A2.082,2.082,0,0,0,192.624,93.982Z" transform="translate(83.559 850.379)" fill="#ed5565"/>
    <path id="Path_1508" data-name="Path 1508" d="M244.219,93.983a2.083,2.083,0,0,0-2.262-.454,2.083,2.083,0,0,1,.682,3.4l-2.155,2.151L241,99.6h0a.393.393,0,0,0,.54,0h0l2.675-2.669A2.081,2.081,0,0,0,244.219,93.983Z" transform="translate(31.965 850.378)" fill="#da4453"/>
  </g>
</svg>
