<svg xmlns="http://www.w3.org/2000/svg" xmlns:xlink="http://www.w3.org/1999/xlink" width="112.012" height="25" viewBox="0 0 112.012 25">
  <defs>
    <radialGradient id="radial-gradient" cx="3.119" cy="20.522" r="22.561" gradientTransform="translate(0.224) scale(0.552 1)" gradientUnits="objectBoundingBox">
      <stop offset="0" stop-color="#3a0a60"/>
      <stop offset="0" stop-color="#3c3795"/>
      <stop offset="0.46" stop-color="#6100ad"/>
      <stop offset="1" stop-color="#8133bd"/>
    </radialGradient>
    <radialGradient id="radial-gradient-2" cx="2.434" cy="8.53" r="9.499" gradientTransform="translate(-0.007) scale(1.014 1)" xlink:href="#radial-gradient"/>
    <radialGradient id="radial-gradient-3" cx="2.215" cy="1.944" r="2.199" gradientTransform="translate(-1.494) scale(3.988 1)" xlink:href="#radial-gradient"/>
    <radialGradient id="radial-gradient-4" cx="1.287" cy="1.906" r="2.196" gradientTransform="translate(-0.993) scale(2.986 1)" xlink:href="#radial-gradient"/>
    <radialGradient id="radial-gradient-5" cx="2.936" cy="4.615" r="5.542" gradientTransform="translate(-1.321) scale(3.643 1)" xlink:href="#radial-gradient"/>
    <radialGradient id="radial-gradient-6" cx="0.747" cy="4.183" r="6.995" gradientTransform="translate(-0.164) scale(1.328 1)" xlink:href="#radial-gradient"/>
    <radialGradient id="radial-gradient-7" cx="1.354" cy="6.052" r="7.745" gradientTransform="translate(-0.299) scale(1.598 1)" xlink:href="#radial-gradient"/>
    <radialGradient id="radial-gradient-8" cx="0.465" cy="7.669" r="12.309" gradientTransform="translate(-0.005) scale(1.01 1)" xlink:href="#radial-gradient"/>
    <radialGradient id="radial-gradient-9" cx="0.951" cy="7.728" r="9.891" gradientTransform="translate(-0.135) scale(1.27 1)" xlink:href="#radial-gradient"/>
    <radialGradient id="radial-gradient-10" cx="3.718" cy="-0.384" r="0.449" gradientTransform="translate(-3.255) scale(7.51 1)" xlink:href="#radial-gradient"/>
    <radialGradient id="radial-gradient-11" cx="2.409" cy="-0.889" r="1.842" gradientTransform="translate(0.123) scale(0.754 1)" xlink:href="#radial-gradient"/>
    <radialGradient id="radial-gradient-12" cx="2.105" cy="-0.463" r="0.783" gradientTransform="translate(-0.276) scale(1.552 1)" xlink:href="#radial-gradient"/>
    <radialGradient id="radial-gradient-13" cx="1.618" cy="-0.201" r="0.287" gradientTransform="translate(-1.316) scale(3.632 1)" xlink:href="#radial-gradient"/>
    <radialGradient id="radial-gradient-14" cx="0.832" cy="-3.397" r="1.076" gradientTransform="translate(-0.006) scale(1.011 1)" xlink:href="#radial-gradient"/>
    <radialGradient id="radial-gradient-15" cx="1.594" cy="-1.457" r="1.031" gradientTransform="translate(-0.486) scale(1.973 1)" xlink:href="#radial-gradient"/>
    <radialGradient id="radial-gradient-16" cx="0.407" cy="-2.809" r="1.068" gradientTransform="translate(-0.081) scale(1.161 1)" xlink:href="#radial-gradient"/>
    <radialGradient id="radial-gradient-17" cx="0.822" cy="-1.552" r="1.097" gradientTransform="translate(-0.205) scale(1.41 1)" xlink:href="#radial-gradient"/>
    <radialGradient id="radial-gradient-18" cx="0.573" cy="-2.579" r="1.823" gradientTransform="translate(-0.089) scale(1.178 1)" xlink:href="#radial-gradient"/>
    <radialGradient id="radial-gradient-19" cx="0.495" cy="0.5" r="0.398" gradientTransform="translate(-0.474) scale(1.949 1)" xlink:href="#radial-gradient"/>
  </defs>
  <g id="Group_2236" data-name="Group 2236" transform="translate(-637 64.5)">
    <g id="Group_594" data-name="Group 594" transform="translate(637 -63.83)">
      <g id="Group_121" data-name="Group 121">
        <path id="Path_344" data-name="Path 344" d="M2969.685,224.318a10.338,10.338,0,0,0-3.495,1.742,2.631,2.631,0,0,1,2.525-1.93A2.574,2.574,0,0,1,2969.685,224.318Z" transform="translate(-2966.086 -224.13)" fill="url(#radial-gradient)"/>
        <path id="Path_345" data-name="Path 345" d="M2969.828,228.942a10.63,10.63,0,0,0-4.519,4.272v-1.758a10.376,10.376,0,0,1,4.172-2.826A2.685,2.685,0,0,1,2969.828,228.942Z" transform="translate(-2965.304 -228.123)" fill="url(#radial-gradient-2)"/>
        <path id="Path_346" data-name="Path 346" d="M2967.34,250.368a21,21,0,0,0,1.485,3.57c-.09-.047-.18-.1-.268-.149a6.515,6.515,0,0,1-2.351-2.394,6.6,6.6,0,0,1-.857-3.257v-6.9a11.585,11.585,0,0,1,4.771-7.095,2.525,2.525,0,0,1,.194.325C2966.652,237.419,2965.3,243.859,2967.34,250.368Z" transform="translate(-2965.341 -233.012)" fill="url(#radial-gradient-3)"/>
        <path id="Path_347" data-name="Path 347" d="M2993.74,259.606a6.355,6.355,0,0,1-2.468.579l-.021-.027a20.87,20.87,0,0,1-2.222-3.692c-2.888-6.138-2.446-12.668.733-16.106a2.62,2.62,0,0,1,.113.512c-2.086,3.2-2.1,8.13.012,12.9a1.2,1.2,0,0,0,.366.783,21.222,21.222,0,0,0,1.232,2.159q.563.865,1.183,1.646Q2993.186,259.014,2993.74,259.606Z" transform="translate(-2984.638 -238.53)" fill="url(#radial-gradient-4)"/>
        <path id="Path_348" data-name="Path 348" d="M3008.867,261.717h-1.448a12.377,12.377,0,0,1-.131-7.857v2.235h.253A13.559,13.559,0,0,0,3008.867,261.717Z" transform="translate(-3002.038 -250.508)" fill="url(#radial-gradient-5)"/>
        <path id="Path_349" data-name="Path 349" d="M3036.518,348.967c-.055.113-.113.215-.171.32a6.479,6.479,0,0,1-1.077,1.408l-.239-.225q-.723-.69-1.4-1.466l-.113-.131a21.1,21.1,0,0,1-1.691-2.275v-.007a1.264,1.264,0,0,0,.127-.557v-.026a2.648,2.648,0,0,1,.51-1.539,19.772,19.772,0,0,0,1.98,2.532,20.827,20.827,0,0,0,1.487,1.466l.128.113C3036.213,348.71,3036.366,348.84,3036.518,348.967Z" transform="translate(-3024.326 -330.903)" fill="url(#radial-gradient-6)"/>
        <path id="Path_350" data-name="Path 350" d="M3024.157,278.934a2.707,2.707,0,0,1-1.319.338h-.084a13.342,13.342,0,0,1-2.114-5.622h.726A13.291,13.291,0,0,0,3024.157,278.934Z" transform="translate(-3014.398 -268.067)" fill="url(#radial-gradient-7)"/>
        <path id="Path_351" data-name="Path 351" d="M3051.924,337.479a6.587,6.587,0,0,1-.061.891q-.28-.214-.547-.436-.772-.637-1.453-1.325a19.083,19.083,0,0,1-1.443-1.622,2.592,2.592,0,0,1,1.88.046A2.655,2.655,0,0,1,3051.924,337.479Z" transform="translate(-3039.046 -322.352)" fill="url(#radial-gradient-8)"/>
        <path id="Path_352" data-name="Path 352" d="M3037.125,276.859a2.8,2.8,0,0,1-.461,1.223,12.932,12.932,0,0,1-3-4.4h.79A12.4,12.4,0,0,0,3037.125,276.859Z" transform="translate(-3025.949 -268.094)" fill="url(#radial-gradient-9)"/>
        <path id="Path_353" data-name="Path 353" d="M2999.481,253.767h-.131s-.007,4.008-.006,4.034c-2.115-4.771-2.1-9.7-.012-12.9a2.682,2.682,0,0,1,.018.307v.7A12.408,12.408,0,0,0,2999.481,253.767Z" transform="translate(-2994.1 -242.558)" fill="url(#radial-gradient-10)"/>
        <path id="Path_354" data-name="Path 354" d="M2969.441,226.119a10.406,10.406,0,0,0-4.171,2.826v-.685a2.625,2.625,0,0,1,.1-.718,10.345,10.345,0,0,1,3.495-1.742,2.536,2.536,0,0,1,.577.319Z" transform="translate(-2965.27 -225.612)" fill="url(#radial-gradient-11)"/>
        <path id="Path_355" data-name="Path 355" d="M2970.08,231.709a11.57,11.57,0,0,0-4.771,7.095v-3.132a10.63,10.63,0,0,1,4.519-4.272A2.367,2.367,0,0,1,2970.08,231.709Z" transform="translate(-2965.304 -230.58)" fill="url(#radial-gradient-12)"/>
        <path id="Path_356" data-name="Path 356" d="M2980.145,257.2l-.025.028h-.146a6.352,6.352,0,0,1-2.962-.732,20.94,20.94,0,0,1-1.481-3.572c-2.037-6.508-.684-12.949,2.974-15.9a2.636,2.636,0,0,1,.154.377c-3.179,3.439-3.621,9.968-.733,16.106A20.8,20.8,0,0,0,2980.145,257.2Z" transform="translate(-2973.531 -235.567)" fill="url(#radial-gradient-13)"/>
        <path id="Path_357" data-name="Path 357" d="M3020.426,367.394a6.451,6.451,0,0,1-1.275.985,6.2,6.2,0,0,1-.563.3q-.555-.592-1.073-1.24-.622-.781-1.184-1.646a21.462,21.462,0,0,1-1.231-2.159,1.107,1.107,0,0,0,.262.189l.051.027a1.15,1.15,0,0,0,1.127-.057.228.228,0,0,0,.036-.024l.012-.008a1.231,1.231,0,0,0,.4-.469v.007a21,21,0,0,0,1.691,2.275l.113.131q.676.78,1.4,1.466Z" transform="translate(-3009.482 -347.601)" fill="url(#radial-gradient-14)"/>
        <path id="Path_358" data-name="Path 358" d="M3016.959,279.3h-1.527a13.532,13.532,0,0,1-1.323-5.622h.736A13.439,13.439,0,0,0,3016.959,279.3Z" transform="translate(-3008.603 -268.094)" fill="url(#radial-gradient-15)"/>
        <path id="Path_359" data-name="Path 359" d="M3042.223,339.6a6.567,6.567,0,0,1-.625,2.046c-.153-.127-.3-.257-.451-.389l-.129-.113q-.78-.695-1.487-1.466a19.924,19.924,0,0,1-1.981-2.532,2.625,2.625,0,0,1,1.234-.928,19,19,0,0,0,1.443,1.622,19.338,19.338,0,0,0,1.453,1.325Q3041.939,339.386,3042.223,339.6Z" transform="translate(-3029.401 -323.583)" fill="url(#radial-gradient-16)"/>
        <path id="Path_360" data-name="Path 360" d="M3030.826,278.083a2.809,2.809,0,0,1-.955.878,13.252,13.252,0,0,1-2.792-5.281h.742A12.888,12.888,0,0,0,3030.826,278.083Z" transform="translate(-3020.111 -268.094)" fill="url(#radial-gradient-17)"/>
        <path id="Path_361" data-name="Path 361" d="M3043.4,276.5a2.681,2.681,0,0,1-.025.368,12.424,12.424,0,0,1-2.672-3.178A2.79,2.79,0,0,1,3043.4,276.5Z" transform="translate(-3032.196 -268.103)" fill="url(#radial-gradient-18)"/>
        <path id="Path_382" data-name="Path 382" d="M3028.857,358.346a1.168,1.168,0,0,1-.124.528,1.191,1.191,0,0,1-.4.462,1.228,1.228,0,0,0,.4-.469,1.285,1.285,0,0,0,.127-.557A.3.3,0,0,1,3028.857,358.346Z" transform="translate(-3021.221 -343.183)" opacity="0.28" fill="url(#radial-gradient-19)"/>
      </g>
    </g>
    <line id="Line_43" data-name="Line 43" y2="25" transform="translate(659.636 -64.5)" fill="none" stroke="#707070" stroke-width="1" opacity="0.2"/>
    <path id="Path_383" data-name="Path 383" d="M-64.477-9.148h-3.2V0H-70.2V-9.148h-3.18V-11.2h8.906ZM-57.461-3.3H-62.68q.125,1.742,2.2,1.742a4.286,4.286,0,0,0,2.32-.625V-.4A6.1,6.1,0,0,1-61.047.2,4.058,4.058,0,0,1-64.055-.879a4.058,4.058,0,0,1-1.07-3,4.281,4.281,0,0,1,1.156-3.156A3.852,3.852,0,0,1-61.125-8.2a3.5,3.5,0,0,1,2.707,1.039,4,4,0,0,1,.957,2.82ZM-59.75-4.812q0-1.719-1.391-1.719a1.328,1.328,0,0,0-1.027.492A2.234,2.234,0,0,0-62.7-4.812Zm9.82,4.523A4.881,4.881,0,0,1-52.344.2,4.083,4.083,0,0,1-55.328-.922,3.859,3.859,0,0,1-56.469-3.8,4.251,4.251,0,0,1-55.246-7.02,4.518,4.518,0,0,1-51.977-8.2a4.2,4.2,0,0,1,2.047.375v2.094A2.814,2.814,0,0,0-51.656-6.3a2.275,2.275,0,0,0-1.684.621,2.317,2.317,0,0,0-.621,1.715A2.28,2.28,0,0,0-53.367-2.3a2.182,2.182,0,0,0,1.633.605,3.258,3.258,0,0,0,1.8-.578Zm9.3.289h-2.461V-4.547q0-1.758-1.281-1.758a1.312,1.312,0,0,0-1.062.492,1.9,1.9,0,0,0-.406,1.25V0h-2.469V-11.844h2.469v5.031h.031A2.805,2.805,0,0,1-43.352-8.2q2.719,0,2.719,3.281Zm1.43-.211v-2a5.256,5.256,0,0,0,1.215.547,4.028,4.028,0,0,0,1.145.18,2.455,2.455,0,0,0,1.035-.18.581.581,0,0,0,.379-.547A.506.506,0,0,0-35.6-2.6a1.6,1.6,0,0,0-.441-.273,5.009,5.009,0,0,0-.59-.211q-.32-.094-.617-.211a5.913,5.913,0,0,1-.84-.387,2.427,2.427,0,0,1-.609-.48,1.889,1.889,0,0,1-.375-.633,2.525,2.525,0,0,1-.129-.852A2.192,2.192,0,0,1-38.91-6.8a2.393,2.393,0,0,1,.781-.793,3.57,3.57,0,0,1,1.117-.453A5.825,5.825,0,0,1-35.7-8.2a7.261,7.261,0,0,1,1.078.082,8.047,8.047,0,0,1,1.078.238v1.906a3.9,3.9,0,0,0-1-.41A4.235,4.235,0,0,0-35.6-6.516a2.328,2.328,0,0,0-.457.043,1.505,1.505,0,0,0-.379.125.7.7,0,0,0-.258.211.486.486,0,0,0-.094.293.541.541,0,0,0,.141.375,1.221,1.221,0,0,0,.367.27,3.625,3.625,0,0,0,.5.2q.277.09.551.184a7.161,7.161,0,0,1,.891.375,2.848,2.848,0,0,1,.684.477,1.871,1.871,0,0,1,.438.641,2.277,2.277,0,0,1,.152.875,2.282,2.282,0,0,1-.309,1.215,2.471,2.471,0,0,1-.82.82,3.72,3.72,0,0,1-1.18.461A6.54,6.54,0,0,1-36.758.2,7.149,7.149,0,0,1-39.2-.211ZM-23.961,0h-2.461V-4.547q0-1.758-1.281-1.758a1.312,1.312,0,0,0-1.062.492,1.9,1.9,0,0,0-.406,1.25V0h-2.469V-11.844h2.469v5.031h.031A2.805,2.805,0,0,1-26.68-8.2q2.719,0,2.719,3.281ZM-18.2.2A4.3,4.3,0,0,1-21.34-.926a4.064,4.064,0,0,1-1.145-3.043A4.065,4.065,0,0,1-21.3-7.074,4.487,4.487,0,0,1-18.086-8.2a4.249,4.249,0,0,1,3.125,1.121,3.985,3.985,0,0,1,1.133,2.965A4.23,4.23,0,0,1-15-.961,4.348,4.348,0,0,1-18.2.2Zm.063-6.5a1.647,1.647,0,0,0-1.359.6A2.653,2.653,0,0,0-19.977-4q0,2.3,1.859,2.3,1.773,0,1.773-2.367Q-16.344-6.3-18.133-6.3ZM-7.391-.094A3.649,3.649,0,0,1-9.039.2q-2.609,0-2.609-2.711V-6.18h-1.3V-8h1.3V-9.727l2.461-.7V-8h1.8v1.82h-1.8v3.234q0,1.25.992,1.25a1.673,1.673,0,0,0,.8-.227Zm.867-.117v-2a5.256,5.256,0,0,0,1.215.547,4.028,4.028,0,0,0,1.145.18,2.455,2.455,0,0,0,1.035-.18.581.581,0,0,0,.379-.547A.506.506,0,0,0-2.922-2.6a1.6,1.6,0,0,0-.441-.273,5.009,5.009,0,0,0-.59-.211q-.32-.094-.617-.211a5.913,5.913,0,0,1-.84-.387,2.427,2.427,0,0,1-.609-.48A1.889,1.889,0,0,1-6.395-4.8a2.525,2.525,0,0,1-.129-.852A2.192,2.192,0,0,1-6.23-6.8,2.393,2.393,0,0,1-5.449-7.6a3.57,3.57,0,0,1,1.117-.453A5.825,5.825,0,0,1-3.023-8.2a7.261,7.261,0,0,1,1.078.082,8.047,8.047,0,0,1,1.078.238v1.906a3.9,3.9,0,0,0-1-.41,4.235,4.235,0,0,0-1.051-.137,2.328,2.328,0,0,0-.457.043,1.505,1.505,0,0,0-.379.125.7.7,0,0,0-.258.211.486.486,0,0,0-.094.293.541.541,0,0,0,.141.375A1.221,1.221,0,0,0-3.6-5.2a3.625,3.625,0,0,0,.5.2q.277.09.551.184a7.161,7.161,0,0,1,.891.375,2.848,2.848,0,0,1,.684.477,1.871,1.871,0,0,1,.438.641,2.277,2.277,0,0,1,.152.875A2.282,2.282,0,0,1-.691-1.23a2.471,2.471,0,0,1-.82.82,3.72,3.72,0,0,1-1.18.461A6.54,6.54,0,0,1-4.078.2,7.149,7.149,0,0,1-6.523-.211Z" transform="translate(749.395 -46.5)" fill="#0a1119"/>
  </g>
</svg>
