<svg xmlns="http://www.w3.org/2000/svg" width="707.588" height="105.672" viewBox="0 0 707.588 105.672">
  <path id="Path_2634" data-name="Path 2634" d="M78.144-103.6v19.536H50.172V0H29.748V-84.064H1.924V-103.6ZM91.316-29.156q3.848,13.912,20.868,13.912,10.952,0,16.576-7.4l15.392,8.88Q133.2,2.072,111.888,2.072q-18.352,0-29.452-11.1T71.336-37q0-16.724,10.952-27.9t28.12-11.174q16.28,0,26.862,11.248T147.852-37a44.7,44.7,0,0,1-.74,7.844Zm-.3-14.8h37.74Q127.132-51.5,122.026-55.2a19.3,19.3,0,0,0-11.618-3.7q-7.7,0-12.728,3.922A18.744,18.744,0,0,0,91.02-43.956ZM195.8,2.072q-16.724,0-27.9-11.248T156.732-37q0-16.576,11.174-27.824t27.9-11.248a38.35,38.35,0,0,1,19.684,5.18A34.442,34.442,0,0,1,228.956-56.98l-16.428,9.62a16.749,16.749,0,0,0-6.734-7.252,19.569,19.569,0,0,0-10.138-2.664,19.127,19.127,0,0,0-14.208,5.7q-5.624,5.7-5.624,14.578a19.692,19.692,0,0,0,5.624,14.43,19.127,19.127,0,0,0,14.208,5.7,20.3,20.3,0,0,0,10.286-2.59,16.312,16.312,0,0,0,6.734-7.178l16.576,9.472A37.069,37.069,0,0,1,215.488-3.182,37.934,37.934,0,0,1,195.8,2.072ZM280.46-76.072q12.136,0,20.054,8.14t7.918,22.5V0H289.34V-43.068q0-7.4-4-11.322t-10.656-3.922q-7.4,0-11.84,4.588t-4.44,13.764V0H239.316V-103.6h19.092v37.888Q265.364-76.072,280.46-76.072Zm61.864,23.088q0,2.96,3.922,4.81a52.3,52.3,0,0,0,9.546,3.256,98.665,98.665,0,0,1,11.248,3.552,21.833,21.833,0,0,1,9.546,7.178,19.844,19.844,0,0,1,3.922,12.58q0,11.4-8.51,17.538T350.76,2.072q-22.792,0-31.08-17.612l16.576-9.324q3.256,9.62,14.5,9.62,10.212,0,10.212-6.364,0-2.96-3.922-4.81a55.977,55.977,0,0,0-9.546-3.33,99.8,99.8,0,0,1-11.248-3.7,23.093,23.093,0,0,1-9.546-7.03,18.463,18.463,0,0,1-3.922-12.062q0-10.952,8.066-17.242t20.054-6.29A33.517,33.517,0,0,1,367.336-72a29.745,29.745,0,0,1,11.692,11.618l-16.28,8.88q-3.552-7.548-11.84-7.548a10.844,10.844,0,0,0-6.142,1.628A5.075,5.075,0,0,0,342.324-52.984Zm91.612-23.088q12.136,0,20.054,8.14t7.918,22.5V0H442.816V-43.068q0-7.4-4-11.322t-10.656-3.922q-7.4,0-11.84,4.588t-4.44,13.764V0H392.792V-103.6h19.092v37.888Q418.84-76.072,433.936-76.072ZM541.236-9.25A37.98,37.98,0,0,1,513.412,2.072,37.735,37.735,0,0,1,485.662-9.25,37.735,37.735,0,0,1,474.34-37a37.735,37.735,0,0,1,11.322-27.75,37.735,37.735,0,0,1,27.75-11.322A37.98,37.98,0,0,1,541.236-64.75,37.61,37.61,0,0,1,552.632-37,37.61,37.61,0,0,1,541.236-9.25Zm-42.106-13.1a19.243,19.243,0,0,0,14.282,5.772,19.488,19.488,0,0,0,14.356-5.772A19.852,19.852,0,0,0,533.54-37a19.852,19.852,0,0,0-5.772-14.652,19.488,19.488,0,0,0-14.356-5.772,19.243,19.243,0,0,0-14.282,5.772A19.99,19.99,0,0,0,493.432-37,19.99,19.99,0,0,0,499.13-22.348Zm107.67-33.3H590.076v30.784q0,3.848,1.924,5.624a8.832,8.832,0,0,0,5.624,2,82.869,82.869,0,0,0,9.176-.074V0q-19.684,2.22-27.75-3.7t-8.066-21.164V-55.648H558.108V-74h12.876V-88.948l19.092-5.772V-74H606.8Zm29.452,2.664q0,2.96,3.922,4.81a52.3,52.3,0,0,0,9.546,3.256,98.665,98.665,0,0,1,11.248,3.552,21.833,21.833,0,0,1,9.546,7.178,19.844,19.844,0,0,1,3.922,12.58q0,11.4-8.51,17.538T644.688,2.072q-22.792,0-31.08-17.612l16.576-9.324q3.256,9.62,14.5,9.62,10.212,0,10.212-6.364,0-2.96-3.922-4.81a55.979,55.979,0,0,0-9.546-3.33,99.806,99.806,0,0,1-11.248-3.7,23.093,23.093,0,0,1-9.546-7.03,18.463,18.463,0,0,1-3.922-12.062q0-10.952,8.066-17.242t20.054-6.29A33.518,33.518,0,0,1,661.264-72a29.745,29.745,0,0,1,11.692,11.618l-16.28,8.88q-3.552-7.548-11.84-7.548a10.844,10.844,0,0,0-6.142,1.628A5.075,5.075,0,0,0,636.252-52.984Zm69.56,51.208a12.111,12.111,0,0,1-8.88,3.7,12.111,12.111,0,0,1-8.88-3.7,12.111,12.111,0,0,1-3.7-8.88,12.111,12.111,0,0,1,3.7-8.88,12.111,12.111,0,0,1,8.88-3.7,12.111,12.111,0,0,1,8.88,3.7,12.111,12.111,0,0,1,3.7,8.88A12.111,12.111,0,0,1,705.812-1.776Z" transform="translate(-1.924 103.6)" fill="#110833"/>
</svg>
