<svg xmlns="http://www.w3.org/2000/svg" xmlns:xlink="http://www.w3.org/1999/xlink" width="139.363" height="32.391" viewBox="0 0 139.363 32.391">
  <defs>
    <radialGradient id="radial-gradient" cx="3.119" cy="20.522" r="22.561" gradientTransform="translate(0.224) scale(0.552 1)" gradientUnits="objectBoundingBox">
      <stop offset="0" stop-color="#3a0a60"/>
      <stop offset="0" stop-color="#3c3795"/>
      <stop offset="0.46" stop-color="#6100ad"/>
      <stop offset="1" stop-color="#8133bd"/>
    </radialGradient>
    <radialGradient id="radial-gradient-2" cx="2.434" cy="8.53" r="9.499" gradientTransform="translate(-0.007) scale(1.014 1)" xlink:href="#radial-gradient"/>
    <radialGradient id="radial-gradient-3" cx="2.215" cy="1.944" r="2.199" gradientTransform="translate(-1.494) scale(3.988 1)" xlink:href="#radial-gradient"/>
    <radialGradient id="radial-gradient-4" cx="1.287" cy="1.906" r="2.196" gradientTransform="translate(-0.993) scale(2.986 1)" xlink:href="#radial-gradient"/>
    <radialGradient id="radial-gradient-5" cx="2.936" cy="4.615" r="5.542" gradientTransform="translate(-1.321) scale(3.643 1)" xlink:href="#radial-gradient"/>
    <radialGradient id="radial-gradient-6" cx="0.747" cy="4.183" r="6.995" gradientTransform="translate(-0.164) scale(1.328 1)" xlink:href="#radial-gradient"/>
    <radialGradient id="radial-gradient-7" cx="1.354" cy="6.052" r="7.745" gradientTransform="translate(-0.299) scale(1.598 1)" xlink:href="#radial-gradient"/>
    <radialGradient id="radial-gradient-8" cx="0.465" cy="7.669" r="12.309" gradientTransform="translate(-0.005) scale(1.01 1)" xlink:href="#radial-gradient"/>
    <radialGradient id="radial-gradient-9" cx="0.951" cy="7.728" r="9.891" gradientTransform="translate(-0.135) scale(1.27 1)" xlink:href="#radial-gradient"/>
    <radialGradient id="radial-gradient-10" cx="3.718" cy="-0.384" r="0.449" gradientTransform="translate(-3.255) scale(7.51 1)" xlink:href="#radial-gradient"/>
    <radialGradient id="radial-gradient-11" cx="2.409" cy="-0.889" r="1.842" gradientTransform="translate(0.123) scale(0.754 1)" xlink:href="#radial-gradient"/>
    <radialGradient id="radial-gradient-12" cx="2.105" cy="-0.463" r="0.783" gradientTransform="translate(-0.276) scale(1.552 1)" xlink:href="#radial-gradient"/>
    <radialGradient id="radial-gradient-13" cx="1.618" cy="-0.201" r="0.287" gradientTransform="translate(-1.316) scale(3.632 1)" xlink:href="#radial-gradient"/>
    <radialGradient id="radial-gradient-14" cx="0.832" cy="-3.397" r="1.076" gradientTransform="translate(-0.006) scale(1.011 1)" xlink:href="#radial-gradient"/>
    <radialGradient id="radial-gradient-15" cx="1.594" cy="-1.457" r="1.031" gradientTransform="translate(-0.486) scale(1.973 1)" xlink:href="#radial-gradient"/>
    <radialGradient id="radial-gradient-16" cx="0.407" cy="-2.809" r="1.068" gradientTransform="translate(-0.081) scale(1.161 1)" xlink:href="#radial-gradient"/>
    <radialGradient id="radial-gradient-17" cx="0.822" cy="-1.552" r="1.097" gradientTransform="translate(-0.205) scale(1.41 1)" xlink:href="#radial-gradient"/>
    <radialGradient id="radial-gradient-18" cx="0.573" cy="-2.579" r="1.823" gradientTransform="translate(-0.089) scale(1.178 1)" xlink:href="#radial-gradient"/>
    <radialGradient id="radial-gradient-19" cx="0.495" cy="0.5" r="0.398" gradientTransform="translate(-0.474) scale(1.949 1)" xlink:href="#radial-gradient"/>
  </defs>
  <g id="Group_140" data-name="Group 140" transform="translate(-62.406 -52.5)">
    <g id="Group_123" data-name="Group 123" transform="translate(62.406 53.778)">
      <g id="Group_121" data-name="Group 121">
        <path id="Path_344" data-name="Path 344" d="M2971.21,224.4a14.852,14.852,0,0,0-5.02,2.5,3.779,3.779,0,0,1,3.628-2.772,3.7,3.7,0,0,1,1.392.27Z" transform="translate(-2966.041 -224.13)" fill="url(#radial-gradient)"/>
        <path id="Path_345" data-name="Path 345" d="M2971.8,229.079a15.27,15.27,0,0,0-6.491,6.136V232.69a14.9,14.9,0,0,1,5.992-4.06A3.889,3.889,0,0,1,2971.8,229.079Z" transform="translate(-2965.303 -227.901)" fill="url(#radial-gradient-2)"/>
        <path id="Path_346" data-name="Path 346" d="M2968.208,257.45a30.238,30.238,0,0,0,2.134,5.129c-.129-.068-.259-.139-.385-.214a9.354,9.354,0,0,1-3.376-3.438,9.476,9.476,0,0,1-1.231-4.679v-9.917c1.205-4.547,3.619-8.219,6.853-10.191a3.516,3.516,0,0,1,.279.466C2967.22,238.849,2965.277,248.1,2968.208,257.45Z" transform="translate(-2965.337 -232.519)" fill="url(#radial-gradient-3)"/>
        <path id="Path_347" data-name="Path 347" d="M2996.637,268.006a9.132,9.132,0,0,1-3.545.832l-.029-.039a29.925,29.925,0,0,1-3.192-5.3c-4.149-8.816-3.514-18.2,1.053-23.135a3.678,3.678,0,0,1,.162.735c-3,4.594-3.021,11.678.018,18.531a1.716,1.716,0,0,0,.526,1.125,30.583,30.583,0,0,0,1.769,3.1q.809,1.242,1.7,2.364Q2995.842,267.155,2996.637,268.006Z" transform="translate(-2983.564 -237.732)" fill="url(#radial-gradient-4)"/>
        <path id="Path_348" data-name="Path 348" d="M3009.808,265.146h-2.08a17.783,17.783,0,0,1-.188-11.286v3.21h.364A19.481,19.481,0,0,0,3009.808,265.146Z" transform="translate(-2999.999 -249.045)" fill="url(#radial-gradient-5)"/>
        <path id="Path_349" data-name="Path 349" d="M3038.564,350.93c-.078.162-.162.309-.245.46a9.331,9.331,0,0,1-1.547,2.023l-.344-.324q-1.037-.991-2.008-2.105l-.162-.188a30.255,30.255,0,0,1-2.429-3.268v-.01a1.827,1.827,0,0,0,.183-.8v-.037a3.811,3.811,0,0,1,.732-2.211,28.474,28.474,0,0,0,2.845,3.637,29.934,29.934,0,0,0,2.136,2.105l.185.162C3038.126,350.561,3038.345,350.747,3038.564,350.93Z" transform="translate(-3021.051 -324.982)" fill="url(#radial-gradient-6)"/>
        <path id="Path_350" data-name="Path 350" d="M3025.692,281.24a3.885,3.885,0,0,1-1.894.486h-.122a19.182,19.182,0,0,1-3.036-8.076h1.042A19.1,19.1,0,0,0,3025.692,281.24Z" transform="translate(-3011.674 -265.631)" fill="url(#radial-gradient-7)"/>
        <path id="Path_351" data-name="Path 351" d="M3053.453,338.634a9.343,9.343,0,0,1-.088,1.279q-.4-.308-.785-.627-1.108-.915-2.088-1.9a27.328,27.328,0,0,1-2.073-2.33,3.723,3.723,0,0,1,2.7.066,3.814,3.814,0,0,1,2.332,3.514Z" transform="translate(-3034.955 -316.905)" fill="url(#radial-gradient-8)"/>
        <path id="Path_352" data-name="Path 352" d="M3038.637,278.247a4.007,4.007,0,0,1-.662,1.757,18.562,18.562,0,0,1-4.316-6.324h1.134A17.812,17.812,0,0,0,3038.637,278.247Z" transform="translate(-3022.584 -265.656)" fill="url(#radial-gradient-9)"/>
        <path id="Path_353" data-name="Path 353" d="M3000.23,257.637h-.187s-.01,5.757-.009,5.794c-3.038-6.853-3.014-13.937-.018-18.531a3.639,3.639,0,0,1,.027.44v1.011A17.826,17.826,0,0,0,3000.23,257.637Z" transform="translate(-2992.5 -241.536)" fill="url(#radial-gradient-10)"/>
        <path id="Path_354" data-name="Path 354" d="M2971.262,226.258a14.948,14.948,0,0,0-5.992,4.06v-.985a3.759,3.759,0,0,1,.142-1.032,14.858,14.858,0,0,1,5.021-2.5,3.63,3.63,0,0,1,.829.458Z" transform="translate(-2965.27 -225.53)" fill="url(#radial-gradient-11)"/>
        <path id="Path_355" data-name="Path 355" d="M2972.163,231.844c-3.239,1.973-5.648,5.644-6.853,10.191v-4.5a15.27,15.27,0,0,1,6.491-6.136A3.283,3.283,0,0,1,2972.163,231.844Z" transform="translate(-2965.303 -230.223)" fill="url(#radial-gradient-12)"/>
        <path id="Path_356" data-name="Path 356" d="M2982.573,266a.467.467,0,0,1-.035.041h-.211a9.12,9.12,0,0,1-4.254-1.051,30.181,30.181,0,0,1-2.127-5.13c-2.925-9.349-.982-18.6,4.273-22.844a3.8,3.8,0,0,1,.222.541c-4.567,4.939-5.2,14.319-1.053,23.135A29.932,29.932,0,0,0,2982.573,266Z" transform="translate(-2973.073 -234.933)" fill="url(#radial-gradient-13)"/>
        <path id="Path_357" data-name="Path 357" d="M3022.751,369.185a9.272,9.272,0,0,1-1.832,1.415,8.823,8.823,0,0,1-.809.428q-.8-.85-1.542-1.781-.893-1.122-1.7-2.364a30.735,30.735,0,0,1-1.769-3.1,1.607,1.607,0,0,0,.376.272l.073.039a1.654,1.654,0,0,0,1.62-.083.358.358,0,0,0,.052-.034l.018-.011a1.77,1.77,0,0,0,.572-.674v.01a30.139,30.139,0,0,0,2.429,3.268l.162.188q.971,1.121,2.008,2.105Z" transform="translate(-3007.03 -340.754)" fill="url(#radial-gradient-14)"/>
        <path id="Path_358" data-name="Path 358" d="M3018.2,281.756h-2.194a19.415,19.415,0,0,1-1.9-8.076h1.058A19.308,19.308,0,0,0,3018.2,281.756Z" transform="translate(-3006.2 -265.656)" fill="url(#radial-gradient-15)"/>
        <path id="Path_359" data-name="Path 359" d="M3044.262,341.077a9.4,9.4,0,0,1-.9,2.939c-.219-.183-.437-.369-.648-.559l-.185-.162q-1.12-1-2.136-2.105a28.486,28.486,0,0,1-2.845-3.637,3.764,3.764,0,0,1,1.771-1.333,27.474,27.474,0,0,0,2.073,2.33,27.809,27.809,0,0,0,2.088,1.9Q3043.854,340.767,3044.262,341.077Z" transform="translate(-3025.845 -318.068)" fill="url(#radial-gradient-16)"/>
        <path id="Path_360" data-name="Path 360" d="M3032.461,280a4.025,4.025,0,0,1-1.372,1.262,19.026,19.026,0,0,1-4.01-7.585h1.066A18.512,18.512,0,0,0,3032.461,280Z" transform="translate(-3017.07 -265.656)" fill="url(#radial-gradient-17)"/>
        <path id="Path_361" data-name="Path 361" d="M3044.574,277.727a3.781,3.781,0,0,1-.035.528,17.811,17.811,0,0,1-3.838-4.565A4.008,4.008,0,0,1,3044.574,277.727Z" transform="translate(-3028.486 -265.664)" fill="url(#radial-gradient-18)"/>
        <path id="Path_382" data-name="Path 382" d="M3029.086,358.362a1.689,1.689,0,0,1-.178.758,1.715,1.715,0,0,1-.579.664,1.772,1.772,0,0,0,.572-.674,1.826,1.826,0,0,0,.182-.8A.459.459,0,0,1,3029.086,358.362Z" transform="translate(-3018.118 -336.58)" opacity="0.28" fill="url(#radial-gradient-19)"/>
      </g>
    </g>
    <path id="Path_2606" data-name="Path 2606" d="M10.292-10.292H6.7V0H3.85V-10.292H.272V-12.6h10.02Zm7.893,6.583H12.313q.141,1.96,2.47,1.96a4.822,4.822,0,0,0,2.61-.7v2A6.858,6.858,0,0,1,14.15.22,4.565,4.565,0,0,1,10.767-.989a4.566,4.566,0,0,1-1.2-3.371,4.816,4.816,0,0,1,1.3-3.551,4.334,4.334,0,0,1,3.2-1.31,3.933,3.933,0,0,1,3.045,1.169,4.5,4.5,0,0,1,1.077,3.173ZM15.609-5.414q0-1.934-1.564-1.934a1.494,1.494,0,0,0-1.156.554,2.513,2.513,0,0,0-.593,1.38ZM26.657-.325A5.492,5.492,0,0,1,23.941.22a4.593,4.593,0,0,1-3.357-1.257A4.341,4.341,0,0,1,19.3-4.28,4.782,4.782,0,0,1,20.676-7.9,5.083,5.083,0,0,1,24.354-9.22a4.72,4.72,0,0,1,2.3.422v2.355a3.166,3.166,0,0,0-1.942-.65,2.559,2.559,0,0,0-1.894.7,2.607,2.607,0,0,0-.7,1.929,2.565,2.565,0,0,0,.668,1.876,2.455,2.455,0,0,0,1.837.681,3.666,3.666,0,0,0,2.03-.65ZM37.116,0H34.348V-5.115q0-1.978-1.441-1.978a1.476,1.476,0,0,0-1.2.554,2.136,2.136,0,0,0-.457,1.406V0H28.477V-13.324h2.777v5.66h.035A3.156,3.156,0,0,1,34.058-9.22q3.059,0,3.059,3.691Zm1.608-.237v-2.25a5.913,5.913,0,0,0,1.367.615,4.531,4.531,0,0,0,1.288.2,2.762,2.762,0,0,0,1.165-.2.653.653,0,0,0,.426-.615.569.569,0,0,0-.193-.439,1.8,1.8,0,0,0-.5-.308,5.635,5.635,0,0,0-.664-.237q-.36-.105-.694-.237a6.653,6.653,0,0,1-.945-.435,2.731,2.731,0,0,1-.686-.541A2.125,2.125,0,0,1,38.87-5.4a2.841,2.841,0,0,1-.145-.958,2.466,2.466,0,0,1,.33-1.3,2.692,2.692,0,0,1,.879-.892,4.016,4.016,0,0,1,1.257-.51,6.553,6.553,0,0,1,1.472-.163,8.168,8.168,0,0,1,1.213.092,9.053,9.053,0,0,1,1.213.268v2.145a4.383,4.383,0,0,0-1.129-.461,4.764,4.764,0,0,0-1.182-.154,2.619,2.619,0,0,0-.514.048,1.693,1.693,0,0,0-.426.141.783.783,0,0,0-.29.237.546.546,0,0,0-.105.33.609.609,0,0,0,.158.422,1.374,1.374,0,0,0,.413.3,4.078,4.078,0,0,0,.567.229q.312.1.62.207a8.056,8.056,0,0,1,1,.422,3.2,3.2,0,0,1,.769.536,2.105,2.105,0,0,1,.492.721,2.562,2.562,0,0,1,.171.984,2.568,2.568,0,0,1-.347,1.367,2.78,2.78,0,0,1-.923.923,4.185,4.185,0,0,1-1.327.519,7.357,7.357,0,0,1-1.56.163A8.042,8.042,0,0,1,38.725-.237ZM55.872,0H53.1V-5.115q0-1.978-1.441-1.978a1.476,1.476,0,0,0-1.2.554,2.136,2.136,0,0,0-.457,1.406V0H47.232V-13.324H50.01v5.66h.035A3.156,3.156,0,0,1,52.813-9.22q3.059,0,3.059,3.691Zm6.486.22a4.838,4.838,0,0,1-3.538-1.261,4.573,4.573,0,0,1-1.288-3.423,4.573,4.573,0,0,1,1.336-3.494A5.048,5.048,0,0,1,62.481-9.22,4.78,4.78,0,0,1,66-7.958a4.483,4.483,0,0,1,1.274,3.335,4.759,4.759,0,0,1-1.314,3.542A4.892,4.892,0,0,1,62.358.22Zm.07-7.312a1.852,1.852,0,0,0-1.529.677A2.984,2.984,0,0,0,60.354-4.5q0,2.593,2.092,2.593,2,0,2-2.663Q64.441-7.093,62.429-7.093ZM74.514-.105A4.105,4.105,0,0,1,72.659.22q-2.936,0-2.936-3.05V-6.952H68.265V-9h1.459v-1.942l2.769-.791V-9h2.021v2.048H72.492v3.639q0,1.406,1.116,1.406a1.882,1.882,0,0,0,.905-.255Zm.976-.132v-2.25a5.913,5.913,0,0,0,1.367.615,4.531,4.531,0,0,0,1.288.2,2.762,2.762,0,0,0,1.165-.2.653.653,0,0,0,.426-.615.569.569,0,0,0-.193-.439,1.8,1.8,0,0,0-.5-.308,5.635,5.635,0,0,0-.664-.237q-.36-.105-.694-.237a6.653,6.653,0,0,1-.945-.435,2.731,2.731,0,0,1-.686-.541,2.125,2.125,0,0,1-.422-.712,2.841,2.841,0,0,1-.145-.958,2.466,2.466,0,0,1,.33-1.3,2.692,2.692,0,0,1,.879-.892,4.016,4.016,0,0,1,1.257-.51,6.553,6.553,0,0,1,1.472-.163,8.168,8.168,0,0,1,1.213.092,9.053,9.053,0,0,1,1.213.268v2.145a4.383,4.383,0,0,0-1.129-.461,4.764,4.764,0,0,0-1.182-.154,2.619,2.619,0,0,0-.514.048,1.693,1.693,0,0,0-.426.141.783.783,0,0,0-.29.237.546.546,0,0,0-.105.33.609.609,0,0,0,.158.422,1.374,1.374,0,0,0,.413.3,4.078,4.078,0,0,0,.567.229q.312.1.62.207a8.056,8.056,0,0,1,1,.422,3.2,3.2,0,0,1,.769.536,2.105,2.105,0,0,1,.492.721,2.562,2.562,0,0,1,.171.984,2.568,2.568,0,0,1-.347,1.367,2.78,2.78,0,0,1-.923.923A4.185,4.185,0,0,1,79.8.057,7.357,7.357,0,0,1,78.24.22,8.042,8.042,0,0,1,75.489-.237ZM85.236.22A1.62,1.62,0,0,1,84.094-.2a1.356,1.356,0,0,1-.457-1.037,1.306,1.306,0,0,1,.47-1.037,1.736,1.736,0,0,1,1.173-.4,1.671,1.671,0,0,1,1.165.409A1.331,1.331,0,0,1,86.9-1.239a1.339,1.339,0,0,1-.461,1.05A1.742,1.742,0,0,1,85.236.22Z" transform="translate(114.872 76.279)" fill="#fff"/>
    <line id="Line_21" data-name="Line 21" y2="32.39" transform="translate(98.137 52.5)" fill="none" stroke="#e9e6f3" stroke-width="1" opacity="0.2"/>
  </g>
</svg>
