<svg xmlns="http://www.w3.org/2000/svg" width="1026.189" height="555.09" viewBox="0 0 1026.189 555.09">
  <g id="Group_2238" data-name="Group 2238" transform="translate(-429.784 -159.904)">
    <path id="Path_666" data-name="Path 666" d="M0,29.487c3.943-3.064,1.534-7.8,3.039-11.512,2.534-1.037,3.575-3.459,5.038-5.475,1.664-2.294,2.95-4.77,6.547-4.712,2.161.035,2.506-2.569,3.552-4.095,1.783-2.6,3.633-5.094,7.3-2.728.377.242,1.1.544,1.3.379,4.868-4.012,7.059,2.16,10.682,2.839A2.272,2.272,0,0,1,38.82,5.921a7.815,7.815,0,0,0,3.311,7.516c1.576,1.183.419,3.179-.6,4.71-4.212,6.337-8.364,12.714-12.581,19.048-1.222,1.836-2.84,3.431-3.287,5.709-2.385.364-2.984,2.956-4.887,3.921-2.034.107-3.591-.912-5.092-2.113-4.544-3.631-8.909-7.471-13.324-11.254A7.709,7.709,0,0,1,0,29.487Z" transform="matrix(0.966, -0.259, 0.259, 0.966, 1031.58, 296.793)" fill="#051026"/>
    <path id="Path_722" data-name="Path 722" d="M1.539,0c2.2,1.1,2.39,3.464,3.16,5.431.369.942-.055,2.238-1.188,1.956C.941,6.749,1.182,3.956.165,2.135-.356,1.2.427.388,1.539,0Z" transform="matrix(0.966, -0.259, 0.259, 0.966, 901.092, 321.039)" fill="#e2e4e9"/>
    <path id="Path_723" data-name="Path 723" d="M1.815,4.664C.533,4.28.267,2.753.016,1.423A1.3,1.3,0,0,1,1.539.026C3.252.375,3.517,1.942,3.685,3.315,3.776,4.056,3.273,4.855,1.815,4.664Z" transform="matrix(0.966, -0.259, 0.259, 0.966, 907.349, 329.037)" fill="#d9dce2"/>
    <path id="Path_725" data-name="Path 725" d="M7.044,7.532C4.648,7.25,1.207,8.5.21,5.923-.932,2.965,2.874,1.922,4.469,0,7.057,1.919,7.113,4.7,7.044,7.532Z" transform="matrix(0.966, -0.259, 0.259, 0.966, 813.542, 383.569)" fill="#1a1309"/>
    <g id="Group_2237" data-name="Group 2237" transform="matrix(0.966, -0.259, 0.259, 0.966, -88.354, 266.198)">
      <path id="Path_660" data-name="Path 660" d="M87.161,241.414c-2.035-.316-3.637.726-5.334,1.6-22.928,11.862-47.168,17.324-73,14.746-2.781-.278-5.736.646-8.345-1.037-1.417-2.853.635-4.873,1.867-6.939,9.026-15.15,17-30.788,22.814-47.484,1.465-4.2,2.65-8.459,3.71-12.767,2.3-5.835,2.676-12.127,4.289-18.123.051-.473.1-.948.118-1.423a7.636,7.636,0,0,1,.639-4.21,7.129,7.129,0,0,0,.143-2.129,16.807,16.807,0,0,1,.056-6.581c.03-.5.042-.993.022-1.492a9.764,9.764,0,0,1-.165-3.791c.425-1.766.989-3.458,2.649-4.5a14.787,14.787,0,0,1,5.184-2.28c.641-.178,1.306-.265,1.941-.471,2.276-1.5,5.452-1.511,6.99-4.237,1.663-.8,3.7-1.1,4.314-3.284a2.773,2.773,0,0,1,1.776-1.011c5.767-.637,8.292-4.922,9.789-9.6,2.575-8.039.6-15.995-1.763-23.751C59.295,84.4,48.949,68.676,38.214,53.181A9.018,9.018,0,0,1,37,51.142c-.223-5.963-1.472-11.908-.3-17.895,1.5-1.908,3.332-1.277,5.172-.663,3.468,1.156,6.6,3.036,9.916,4.531,8.776,2,17.392,4.787,26.62,4.248,3.661-.215,7.213-.942,10.826-1.306a62.527,62.527,0,0,0,15.132-5.5c6.2-1.725,10.749-6.059,15.274-10.181C125.933,18.648,132.6,13.238,137.7,6.3c.946-1.593,2.707-2.24,3.991-3.445C143.262,1.5,144.3-1.091,147.14.5c24.018,36.573,25.857,75.971,14.8,116.964-6.542,24.261-15.108,47.764-26.867,70.032-.741,1.4-1.607,2.758-1.3,4.462a1.183,1.183,0,0,1-1.332.024c-6.653-8.921-14.826-15.378-26.178-17.461-8.239-1.511-15.752.118-22.974,3.779a30.229,30.229,0,0,0-6.422,3.964c-1.109,1.571-2.727,2.6-4.114,3.873a15.636,15.636,0,0,0-.918,1.663c-5.861,10.125-4.289,8.836,4.7,12.079A156.8,156.8,0,0,0,114.48,208.2c6.014.6,12,.836,18.023.838a6.326,6.326,0,0,1,5.154,1.948,15.92,15.92,0,0,1-1.754,8.72c-4.775,3.191-10.152,1.959-15.205,1.612A184.408,184.408,0,0,1,78.44,213.76c-3.018-.938-5.915-2.2-8.927-3.133-1.143-.356-2.439-1.215-3.055.716-1.073,2.414.436,4.513.808,6.74-.193,2.467,1.452,4.294,2.267,6.408.691,3.182,3.591,4.547,5.535,6.7,2.071,3.385,5.415,5.111,8.761,6.9C85.214,238.823,87.365,239,87.161,241.414Z" transform="matrix(0.966, -0.259, 0.259, 0.966, 925.219, 369.19)" fill="#7a54fc"/>
      <path id="Path_661" data-name="Path 661" d="M33.816,189.165c-5.83-7.49-12.055-14.67-16.97-22.86C-10.771,120.293-3.922,60.955,33.644,21.28A185.248,185.248,0,0,1,56.982.366a3.1,3.1,0,0,1,4,1c.863,2.675-1.222,3.756-2.88,4.764A73.489,73.489,0,0,0,38.7,23.294C29.851,36.842,27,52.007,26.635,67.848a18.169,18.169,0,0,0,.539,5.625c.629,5.108,1.349,10.206,1.837,15.325a71.169,71.169,0,0,0,8.924,25.291c4.042,5.245,7.266,11.2,13,14.979,1.529,1.007,2.925,2.34,5.063,2.105.565-3.356-3.892-5.163-2.117-8.526a4.915,4.915,0,0,1,1.465-1.179c.919-.522,2.324-.637,2.324-2.043,0-1.556-1.305-2.051-2.527-2.443a24.629,24.629,0,0,1-7.316-4.324,5.737,5.737,0,0,1-1.95-2.037c-1.3-6.022-.054-8.851,5.012-11.4,3.274-.228,5.675,1.65,8.138,3.4.76.539,1.591,1.348,2.54.682,1.246-.874.518-2.065.014-2.98-2.67-4.858-5.67-9.522-8.542-14.273-2.141-12.307-2.2-24.564,1.239-36.659,2.579-9.076,8.823-15.249,16.7-19.892,7.173-4.226,15.034-6.719,23.132-8.454,6.222-1.333,8.557.559,8.767,6.951a142.633,142.633,0,0,0,3.163,27.793C109.161,69.156,116.4,80.572,123.723,91.9c4.129,6.389,8.54,12.6,12.227,19.266,1.115,2.017,2.712,4.072,1.206,6.626-4.83,3.522-10.624,2.609-16,3.16-10.21,1.046-20.45,1.878-30.726,2.267-6.369.241-8.33,3.525-5.8,9.5,1.326,3.142,1.144,5.963.822,9.182-.948,9.473.375,18.894,1.444,28.3a1.6,1.6,0,0,0,1.017,1.468,1.611,1.611,0,0,0,1.96-.93,38.834,38.834,0,0,0,2.637-6.6c1.707-4.691,4.823-6.813,10-7.127,13.713-.834,27.389-2.238,41.052-3.722,1.857-.2,3.812-.61,5.477.785,2.762,4,1.558,8.523,1.352,12.785a33.089,33.089,0,0,1-2.714,11.824c-5.6,21.711-16.055,41.161-28.122,59.834-1.641,2.54-3.074,5.859-7.239,4.8-12.285-5.078-23.54-12.09-35.034-18.653-3.731-.278-6.659-1.8-8.3-5.335.287-4.143-2.769-1.765-4.368-2.219-7.836-4.1-14.009-10.38-20.764-15.9C40.461,197.235,35.394,194.649,33.816,189.165Z" transform="matrix(0.966, -0.259, 0.259, 0.966, 778.819, 409.84)" fill="#7a54fc"/>
      <path id="Path_662" data-name="Path 662" d="M8.692,1.008C28.4-.825,47.969-.424,67.3,4.437a107.227,107.227,0,0,1,41.612,20.211c2.17,4.309,1.819,8.334-1.349,12.046a10.261,10.261,0,0,1-2.7,3.161c-4.727,2.2-7.2,7-11.4,9.859-4.535,3.093-8.426,7.216-14.126,8.325C74.554,55.724,72.271,59.5,69.5,62.1c-9.914,3.108-18.97-.175-27.77-4.1-7.831-3.491-14.6-8.733-20.968-14.444A15.46,15.46,0,0,0,16.12,40.37c-3.963-1.337-6.314-5.7-10.929-5.822C3.45,33.713,1.13,33.855.23,31.6c-.668-2.609.259-4.975,1.016-7.41a10.818,10.818,0,0,0-.15-6.117c-.293-4.4.954-8.675,1-13.063C2.139.421,6.106,1.727,8.692,1.008Z" transform="matrix(0.966, -0.259, 0.259, 0.966, 927.592, 317.748)" fill="#7a54fc"/>
      <path id="Path_663" data-name="Path 663" d="M0,65.315C2.306,64.9,3.254,63,4.392,61.3,16.939,42.574,27.17,22.731,33.5,1c1.852-1.5,3.929-1.017,5.889-.48C47.9,2.856,56.478,4.991,64.966,7.445c1.984.574,4,1.135,4.784,3.412-.483,8.349-4.224,15.729-7.18,23.291C56.632,49.332,48.522,63.432,40.1,77.351c-1.878,2.206.038,3.881.938,5.55,1.423,2.638,3.15,5.113,4.741,7.661,1.968,3.151.292,5.5-1.913,7.476-2.263,2.031-3.375-.781-4.622-1.683-6.918-5-14.449-9.5-20.211-15.64C14.672,76.067,9.225,73.73,4.422,70.153A16.073,16.073,0,0,1,0,65.315Z" transform="matrix(0.966, -0.259, 0.259, 0.966, 933.371, 552.709)" fill="#0a1b45"/>
      <path id="Path_664" data-name="Path 664" d="M45.907,40.693c.923,4.506-.416,8.66-1.979,12.781,3.337,5.876,3.787,12.262,3.485,18.832-.116,2.55-.355,4.972-1.864,7.115a45.49,45.49,0,0,1-16.732,1.925c-2.013-.089-3.127-1.416-4.056-2.9-4.276-6.831-8.574-13.632-14.8-18.937a2.243,2.243,0,0,1-.584-1.751c.89-2.2,2.71-2.147,4.6-1.9,5.418,3.9,11.333,6.04,18.129,5.052,1.5-.217,3.153.224,4.755-1.5-9.149,1.63-16.841-1.169-24.1-5.7C6.485,48.751,1.536,43.052,2,34.347,1.479,32.2.892,30.076.453,27.917A23.845,23.845,0,0,1,13.79,1.809c9.244-4.2,23.382-.8,29.339,7.174,1.578,2.112,3.353,4.278,2.833,7.267-2.118.663-3.162-.947-4.381-2.113-7.349-7.03-15.854-7.357-23.753-.807a26.776,26.776,0,0,0-5.336,6.007c-2.351,3.594-2.582,6.94-.774,11.1,3.593,8.272,8.21,14.775,17.922,16.3,5.3.832,9.7.074,13.183-4.23C43.609,41.539,44.388,40.462,45.907,40.693Z" transform="matrix(0.966, -0.259, 0.259, 0.966, 880.392, 307.686)" fill="#d6dae1"/>
      <path id="Path_665" data-name="Path 665" d="M37.957,34.08C34.081,41.5,29.374,43.829,21.236,42,13.564,40.268,6.684,37.351,4.288,28.767c-.168-.6-.621-1.12-.8-1.72C2.476,23.685-1.1,21.1.334,17c2-5.714,5.312-10.445,10.607-13.571,10.108-5.966,19.411-4.089,25.708,5.1a6.229,6.229,0,0,0,1.362,1.107c1.029.934,2.111,1.894,1.96,3.438-.285,2.924,1.655,3.157,3.758,3.257-3.988.475-5.12,2.729-4.919,6.625C39,26.639,38.278,30.37,37.957,34.08Z" transform="matrix(0.966, -0.259, 0.259, 0.966, 889.783, 312.015)" fill="#0a1b45"/>
      <path id="Path_667" data-name="Path 667" d="M72.179,26.606A169.938,169.938,0,0,1,4.706,15.4C-.723,13.285-1.08,12.809,1.73,7.564,3.138,4.934,4.938,2.514,6.561,0c7.188,1.868,13.768,5.45,21.03,7.2,11.585,2.794,23.234,4.557,35.184,4.1,2.637-.1,5.466-.469,7.5,1.957C72.744,17.448,72.51,22.021,72.179,26.606Z" transform="matrix(0.966, -0.259, 0.259, 0.966, 1036.188, 530.344)" fill="#b73dfa"/>
      <path id="Path_668" data-name="Path 668" d="M1.567,22.638c.8-9.618,5.09-16.991,14.216-20.751C24.684-1.781,32.868,0,40.025,6.348a4.842,4.842,0,0,0,3.391,1.31c.582.7,1.243,1.337,1.823,2.055,1.217,2.615,2.944,5.109,1.887,8.246a10.1,10.1,0,0,1-4.939,4.293A130.018,130.018,0,0,1,8.646,33.94,8.392,8.392,0,0,1,3.5,33.751C1.007,31.694,1.03,28.532.028,25.814-.182,24.405.826,23.586,1.567,22.638Z" transform="matrix(0.966, -0.259, 0.259, 0.966, 810.57, 358.037)" fill="#df9933"/>
      <path id="Path_669" data-name="Path 669" d="M59.718,3.219c-.989-.29-1.841-.657-1.1-1.931A47.639,47.639,0,0,1,73.748.166c2.92.231,5.687.913,7,4.023,2.223,3.969-.81,6.249-3.077,8.378a60.69,60.69,0,0,1-15.247,10.1c-3.682,1.615-7.144,3.728-11.028,4.9C42.412,31,33.76,35.819,23.579,34.339c-5.715,1.25-11.462,2.052-17.327,1.307-2.377-.3-4.911-.612-5.924-3.143C-.8,29.683,1.2,27.68,2.923,25.9a45.065,45.065,0,0,1,13.849-9.636q-.417,1.4-.834,2.792c-1.545,3.332-1.441,6.1,2.574,7.533A128.717,128.717,0,0,0,55.663,14.48,68.5,68.5,0,0,0,61.615,10.7C64.586,7.291,63.351,4.95,59.718,3.219Z" transform="matrix(0.966, -0.259, 0.259, 0.966, 797.532, 368.125)" fill="#fd8d50"/>
      <path id="Path_670" data-name="Path 670" d="M49.256,38.246l9.769,6.892C44.634,55.724,26.54,55.56,13.306,44.724.045,33.864-3.634,16.638,3.761,0q6.97,6.76,13.928,13.522a18.779,18.779,0,0,1,1.413,3.29c2.775,10.856,9.882,16.374,20.911,17.115A40.25,40.25,0,0,1,49.256,38.246Z" transform="matrix(0.966, -0.259, 0.259, 0.966, 844.958, 575.736)" fill="#fd8d50"/>
      <path id="Path_671" data-name="Path 671" d="M2.534,23.9c4.345-2.813,9.034-5.1,12.991-8.507,2.749-2.364,5.555-4.7,6.122-8.619L38.575,0c2.6,6.857,5.515,13.516,11.653,18.1.661,1.439,2.159,2.778.53,4.487-1.563.175-3.34-.677-4.6.955-1.527,1.41-3.683-.171-5.235,1.127a13.756,13.756,0,0,1-7.829,1.1c-3.912-.467-7.925-.424-11.6,1.514a7.3,7.3,0,0,1-4.16.632c-3-1.305-5.94-2.251-8.227,1.241C6.4,30.67,3.655,31.756.638,29.936-1.2,27.151,1.4,25.759,2.534,23.9Z" transform="matrix(0.966, -0.259, 0.259, 0.966, 853.95, 350.327)" fill="#48258d"/>
      <path id="Path_672" data-name="Path 672" d="M1.979,5.3C.611,4.076-.716,2.52.444.81,1.718-1.066,3.3.837,4.6,1.325c21.656,8.15,43.976,12.3,67.163,11.413.281-.011.572.228.859.351l-1.281,3.57c-2.854,3.4-7.025,3.589-10.839,3.806C41.762,21.527,23.688,18.8,6.818,10.061,4.722,8.976,2.446,8.045,1.979,5.3Z" transform="matrix(0.966, -0.259, 0.259, 0.966, 1039.823, 552.393)" fill="#b73dfa"/>
      <path id="Path_673" data-name="Path 673" d="M.976,0A101.23,101.23,0,0,0,56.327,13.294c4.688-.181,9.34-1.262,14.009-1.931a17.212,17.212,0,0,1-4.343,6.8c-7.019,4.052-14.754,3.322-22.231,2.7-11.484-.951-22.846-2.987-33.478-7.8C7.038,11.606,3.329,10.6,1.937,6.663.5,4.6-1.059,2.561.976,0Z" transform="matrix(0.966, -0.259, 0.259, 0.966, 1042.162, 557.247)" fill="#412b6f"/>
      <path id="Path_674" data-name="Path 674" d="M63.711,16.589c-15.516.481-30.9-.237-45.9-4.775A102.711,102.711,0,0,1,3.22,6.287C1.89,5.652.016,5.453,0,3.326L3.692.312A8.192,8.192,0,0,1,9.25.746c14.814,5.618,30.083,8.719,46,8.151,2.114-.075,4.128.187,5.687,1.842a1.923,1.923,0,0,0,.8.163C62.666,12.7,63.975,14.372,63.711,16.589Z" transform="matrix(0.966, -0.259, 0.259, 0.966, 1041.664, 525.434)" fill="#412b6f"/>
      <path id="Path_675" data-name="Path 675" d="M.38,0C16.948,9.2,34.838,12.729,53.625,12.382c3.62-.067,7.143-1.376,10.811-.877a14.01,14.01,0,0,1-4.781,4.822c-7.1,4.676-15.081,2.808-22.649,2.523-8.364-.315-16.469-2.78-24.384-5.636a30.4,30.4,0,0,1-10.344-6.5C1.4,4.544-.9,2.779.38,0Z" transform="matrix(0.966, -0.259, 0.259, 0.966, 1045.39, 563.28)" fill="#b73dfa"/>
      <path id="Path_676" data-name="Path 676" d="M0,0C9.955,4.45,19.99,8.65,30.973,9.875a94.372,94.372,0,0,0,26.405-.259,14.282,14.282,0,0,1-6.851,4.715c-16.027,3.852-31.013,1.551-44.84-7.6A16.413,16.413,0,0,1,0,0Z" transform="matrix(0.966, -0.259, 0.259, 0.966, 1049.327, 569.174)" fill="#412b6f"/>
      <path id="Path_677" data-name="Path 677" d="M0,0A105.153,105.153,0,0,0,44.84,7.6C34.634,13.27,24.123,13.587,13.355,9.389,8,7.547,3.32,4.738,0,0Z" transform="matrix(0.966, -0.259, 0.259, 0.966, 1056.563, 574.208)" fill="#b73dfa"/>
      <path id="Path_678" data-name="Path 678" d="M0,8.367A142.034,142.034,0,0,0,27.558,0c1.369.7,2.478,1.583,2.283,3.354-2.7,4.059-7.52,3.862-11.358,5.641-3.278,1.163-6.021,4.382-10.059,2.616L4.532,9.846C3.319,8.437,1.687,8.317,0,8.367Z" transform="matrix(0.966, -0.259, 0.259, 0.966, 827.03, 387.109)" fill="#dd9834"/>
      <path id="Path_679" data-name="Path 679" d="M45.409,15.075l11.459-4.568c1.595-2.838,3.989-2.853,6.661-1.885a30.959,30.959,0,0,0,8.64-1.808c2.242-2.022,4.915-1.438,7.525-1.241,2.812.388,5.046-1.474,7.629-1.961,3.652-.689,7.353-1.723,10.974-.04,2.5,1.163,3.646-2.506,6.012-1.49,7.2.641,10.517,6.306,14.329,11.223a90.164,90.164,0,0,1,6.184,9.526c.716,1.214,1.319,2.9,2.978,2.7,5.718-.672,11.619.235,17.168-1.924a37.313,37.313,0,0,0,.073-19.866c-.287-1.065-1.622-2.306.011-3.283a2.584,2.584,0,0,1,3.364.7c3.755,4.964,2.1,10.633,1.894,16.023-.275,7.234-1.259,14.433-1.616,21.659-.589,3.977-.838,8-1.164,12.017.192-3.268.681-6.509.772-9.8.929-11.018,2.313-21.989,2.335-33.064a9.854,9.854,0,0,0-2.063-6.623A.851.851,0,0,1,148.361,0c4.283.285,7.162,3.249,10.43,5.468,5.252,3.3,3.859,9.163,5.379,13.9a19.442,19.442,0,0,1,.588,4.494c.214,3.025-1.915,4.83-3.574,6.9-4.434,5.538-5.315,12.292-6.337,18.991,1.011-6.551,1.863-13.118,6.1-18.642,1.381-1.8,3.191-2.781,3.568-.213.865,5.895,3.745,11.947.038,17.893q.579,9.341,1.158,18.682a7.254,7.254,0,0,0-.216,2.441,5.589,5.589,0,0,1-.459,3.2c-4.911,11.67-12.558,20.691-24.618,25.431-2.551,2.454-.126,4.419.946,6.1,4.64,7.293,8.232,15.117,12.08,22.818a59.86,59.86,0,0,1,5.792,16.677,13.346,13.346,0,0,0,.316,1.405c1.052,3.5,2.634,6.928,1.547,10.739-3.252,2.835-3.191-.326-3.632-2.115a162.733,162.733,0,0,0-8.182-24.142,178.992,178.992,0,0,0-13.439-24.9c-.748-1.205-1.168-2.581-2-3.738-4.264-6.148-8.427-12.366-12.4-18.706-3.141-5.5-6.357-10.969-7.893-17.21,1.55,6.313,4.773,11.855,8.009,17.391,4.107,6.575,8.468,12.982,12.839,19.385,6.468,11.149,13.165,22.164,17.633,34.35,1.9,5.18,3.383,10.474,5.046,15.72,1.177,3.711.442,6.154-3.669,6.941-2.971.314-5.9.754-8.046,3.16-2.6,5.129-1.991,16.631,1.057,19.53a6.186,6.186,0,0,1,1.175.9c2.346,2.316,5.334,2.344,8.339,2.447,1.95.066,4.195-.6,5.478,1.7-.736,6.5-1.157,13.079-4.5,18.963l-36.252-9.855c2-8.064,3.831-16.146,2.838-24.556a6.6,6.6,0,0,1-2.024-4.122,83.179,83.179,0,0,0-8.548-26.828c-.982-1.954-2.114-3.935-1.15-6.27a188.026,188.026,0,0,0-15.513-25.059C82.707,90.148,75.569,69.122,75.661,45.6c.028-6.99-.319-6.992-7.124-5.379A98.864,98.864,0,0,0,49.69,46.771c-12.927,5.994-19.223,16.3-20.716,30.214-.959,8.926.372,17.749.325,26.622,1.467,5.13.775,9.732-3.306,13.5-3.58,2.468-4.02,6.353-4.6,10.178-1.964,3.995-5.3,5.371-9.547,4.991-5.7-7.527-8.476-16.133-9.358-25.434C6.885,102.151,5.338,96.033,6,90.588c1.13-9.281,2.2-18.476,5.657-26.1a99.6,99.6,0,0,0-5.52,18.981A16.521,16.521,0,0,1,4.528,88.9c-.876,1.452-1.952,3.036-4,1.35-1.81-18.589.711-36.132,12.422-51.455,3.114-.7,4.971,1.579,7.147,3.054,5.168,3.5,6.574,3.54,11.2-.667a72.77,72.77,0,0,1,11.245-7.919c6.223-3.811,6.389-4.518,3.819-11.505C45.587,19.634,43.78,17.574,45.409,15.075Z" transform="matrix(0.966, -0.259, 0.259, 0.966, 798.674, 386.807)" fill="#d6dae1"/>
      <path id="Path_680" data-name="Path 680" d="M10.909,45.978c-.448-6.077-.9-12.153-1.388-18.812C1.96,34.735,3.106,44.674,0,53.169c.95-6.957.6-14.193,4.08-20.563C6.2,28.731,8.744,25.1,9.9,20.766c2.432-1.481,4.27.19,6.079,1.308A88.449,88.449,0,0,0,31.65,30.04,50.933,50.933,0,0,0,55.023,33.1c1.72-.182,4.815-.146,4.61-2.236-.257-2.612-3.078-1.236-4.736-1-12.852,1.79-24-2.89-34.78-9a38.976,38.976,0,0,1-6.329-4.222c-2.032-1.754-3.527-1.377-5.033.5-1.471-4.766-.537-10.13-3.608-14.5C8.671,3.9,11.27,6.509,14.1,8.763c9.493,7.562,19.469,14.146,31.749,16.278a27.065,27.065,0,0,0,12.684-.5C60.7,23.059,62.6,20.9,65.672,21.65c1.876,1.153,3.576.465,5.26-.509,7.055-4.081,14.2-8.029,19-15,.853-1.238,1.5-2.8,3.132-3.363L94.624,0,115.4,17.338l-3.5,2.409c-.076.314-.154.689-.4.833-10.626,6.179-17.277,16.929-27.334,23.783-1.912,1.3-4.309,2.09-5.539,4.305a30.884,30.884,0,0,1-15.387,5.683c-2.2-.947-2.6-3.057-3.118-5.02-.993-3.746-3.329-5.581-7.222-5.43a77.456,77.456,0,0,1-17.888-1.636c-3.167-.619-5.572.371-6.765,3.648-.811,2.23-1.69,4.483-4.184,5.456Z" transform="matrix(0.966, -0.259, 0.259, 0.966, 947.812, 349.766)" fill="#bfc5cd"/>
      <path id="Path_681" data-name="Path 681" d="M57.244,19.644C37.308,20.86,18.118,17.98,0,9.217,16.3-5.822,45.107-1.9,56.476,16.932A10.665,10.665,0,0,1,57.244,19.644Z" transform="matrix(0.966, -0.259, 0.259, 0.966, 1042.925, 515.876)" fill="#b73dfa"/>
      <path id="Path_682" data-name="Path 682" d="M0,11.506C4.4-.537,3.11-1.611,17.366,1.461a45.8,45.8,0,0,0,10.842.608c7.13-.174,8.39.8,9.976,7.8.348,1.536.662,3.08.992,4.621C25.737,18.5,12.785,16.112,0,11.506Z" transform="matrix(0.966, -0.259, 0.259, 0.966, 981.376, 382.042)" fill="#051026"/>
      <path id="Path_683" data-name="Path 683" d="M0,2.224A3.257,3.257,0,0,1,2.119,0C15.023,18.464,27.3,37.267,31.743,59.882c1.9,9.659.832,18.678-7.6,25.356-1.311,1.038-2.665,2.82-3.975-.02a4.014,4.014,0,0,1,1.569-2.842c8.655-7.5,8.234-16.769,5.355-26.6-4.821-16.465-13.2-31.183-22.422-45.454C2.966,7.68,2.436,4.4,0,2.224Z" transform="matrix(0.966, -0.259, 0.259, 0.966, 974.156, 409.647)" fill="#c3c9d0"/>
      <path id="Path_684" data-name="Path 684" d="M5.673.036C7.095-.214,7.585.9,8.182,1.8,17.823,16.349,26.72,31.3,32.613,47.838c1.975,5.54,3.481,11.182,3.458,17.142C36.042,72.93,32.769,79,25.844,83.03q-.575.455-1.15.907c-3.869.563-5.321-2.814-7.573-4.779-1.768-1.541-3.072-3.711-5.919-3.04-2.424.064-2.379,1.389-1.673,3.15q1.486,3.7,2.97,7.409c.7,1.74,1.561,3.465.723,5.412l-1.777.209c-2.861-.91-3.333-3.618-4.314-5.877C5.383,82.4,4.019,78.168,0,75.673l.026-.212A12.875,12.875,0,0,1,16.154,72.11a24.83,24.83,0,0,1,5.883,4.8c2.341,2.514,4.228,1.952,6.347-.321,5.094-5.468,4.3-12.126,3.39-18.5C30.3,47.749,25.55,38.481,20.8,29.326,17.072,22.148,12.97,15.163,8.6,8.346c-1.1-1.719-2.421-3.411-1.867-5.693Q6.2,1.344,5.673.036Z" transform="matrix(0.966, -0.259, 0.259, 0.966, 969.243, 413.229)" fill="#4d576b"/>
      <path id="Path_685" data-name="Path 685" d="M28.063,4.709c1.46,5.708,1.413,5.647-4.531,5.826-6.547.2-12.764-1.3-18.9-3.27C-1.076,5.431-1.1,5.23,2.339,0,8.29.458,13.6,3.584,19.674,3.916,22.423,4.067,25.342,3.76,28.063,4.709Z" transform="matrix(0.966, -0.259, 0.259, 0.966, 1018.564, 404.756)" fill="#b73dfa"/>
      <path id="Path_686" data-name="Path 686" d="M.336,28.919c-1.053-1.927.608-2.451,1.7-3.235A101.2,101.2,0,0,0,21.157,7.425C24.419,3.443,29.521,2.58,33.609,0a1.081,1.081,0,0,1,.025,1.648c-9.59,9.736-18.868,19.842-31.106,26.463A15.886,15.886,0,0,1,.336,28.919Z" transform="matrix(0.966, -0.259, 0.259, 0.966, 1028.55, 348.577)" fill="#061126"/>
      <path id="Path_687" data-name="Path 687" d="M19.394,2q0,3.607,0,7.214c-1.526,1.864-3.676,1.742-5.674,1.5A93.491,93.491,0,0,0,3.4,9.753C1.473,9.734-.014,8.977.041,6.692.094,4.54-.577,1.333,2.019.987,7.787.22,13.786-1.2,19.394,2Z" transform="matrix(0.966, -0.259, 0.259, 0.966, 980.923, 514.648)" fill="#d2d6de"/>
      <path id="Path_688" data-name="Path 688" d="M7.082,18.287C5.217,14.106,3.218,9.977,1.557,5.716.953,4.164-1.1,2.445.77.661c1.962-1.871,3.312.791,5.011,1.115,4.729,2.063,7.634,5.456,7.871,10.795.473,1.765.563,3.25-1.759,3.856A42.826,42.826,0,0,0,7.082,18.287Z" transform="matrix(0.966, -0.259, 0.259, 0.966, 994.274, 482.927)" fill="#bfc5cd"/>
      <path id="Path_689" data-name="Path 689" d="M19.438,5.21q.008,1.717.016,3.434c-5.866,1.683-11.883.828-17.767.532C-1.2,9.031.576,5.528.2,3.557,1.656,1.283,3.946.906,6.375.852A42.07,42.07,0,0,0,12.963.415C18.371-.557,18.87-.146,19.438,5.21Z" transform="matrix(0.966, -0.259, 0.259, 0.966, 978.731, 506.825)" fill="#d4d8e0"/>
      <path id="Path_690" data-name="Path 690" d="M0,4.09Q13.387-5.737,23.831,8.054c-.369.525-.826,1.1-1.447,1.119C14.489,9.415,6.756,8.884,0,4.09Z" transform="matrix(0.966, -0.259, 0.259, 0.966, 1020.441, 398.946)" fill="#b73dfa"/>
      <path id="Path_691" data-name="Path 691" d="M0,.179C4.414-.751,5.677,2.085,6.836,5.53,8.127,9.369,9.887,13.052,11.444,16.8L6.4,18.784c-2.06.95-2.9-1.111-4.32-1.749A4.048,4.048,0,0,1,1.5,13.548c.314-.886,1.094-1.559,1.175-2.555Q1.338,5.586,0,.179Z" transform="matrix(0.966, -0.259, 0.259, 0.966, 988.782, 486.15)" fill="#bfc5cd"/>
      <path id="Path_692" data-name="Path 692" d="M0,0C7.712,2.8,15.453,4.572,23.773,3.956c-1.9,3.542-5.3,4.9-11.341,4.761C6.427,8.576,2.73,5.041,0,0Z" transform="matrix(0.966, -0.259, 0.259, 0.966, 1022.896, 419.239)" fill="#b73dfa"/>
      <path id="Path_693" data-name="Path 693" d="M8.332,14.37C7.331,10.463,5.224,8.25,0,7.7,4.606,5.933,7.607,4.21,8.238,0,9.645,3.492,11.213,6.449,15.5,6.963,12.251,8.663,9.09,10.21,8.332,14.37Z" transform="matrix(0.966, -0.259, 0.259, 0.966, 1064.451, 455.089)" fill="#4397e1"/>
      <path id="Path_694" data-name="Path 694" d="M2.282,4.38l.11.059C.68,3.855-.378,2.51.126.89.574-.552,2.321.205,3.484.151,8.057-.062,12.513,1.424,17.1,1.157c.866-.05,1.4.595,1.708,1.383l-.775,3.768C12.645,6.808,7.331,6.68,2.282,4.38Z" transform="matrix(0.966, -0.259, 0.259, 0.966, 983.73, 522.995)" fill="#d0d4dc"/>
      <path id="Path_695" data-name="Path 695" d="M8.25,12.781.376,1.983C-.249.421-.3-.642,1.835.441c3,1.527,5.132,4.115,7.538,6.362q1.89,1.766,3.779,3.541c.887,1.033,1.324,1.784-.15,2.959C11.034,14.874,9.728,13.856,8.25,12.781Z" transform="matrix(0.966, -0.259, 0.259, 0.966, 999.437, 481.325)" fill="#bfc5cd"/>
      <path id="Path_696" data-name="Path 696" d="M27.281,5.087C17.564,7.034,8.288,6.4,0,0,9,2.236,17.98,4.6,27.281,5.087Z" transform="matrix(0.966, -0.259, 0.259, 0.966, 1020.838, 414.499)" fill="#b73dfa"/>
      <path id="Path_697" data-name="Path 697" d="M19.877,21.318C13.97,19.461,7.822,20.2,1.912,19.3c-.784,2.1,1.012,2.716,1.545,3.92-2.325.215-3.2-1.535-3.271-3.181C-.055,14.258,0,8.466.017,2.678A3.5,3.5,0,0,1,1.724,0a1.469,1.469,0,0,1,.94.747,3.313,3.313,0,0,1-.437,2.992c-.349.508-.78.951-1.153,1.442-.742,4.508,1.1,6.129,5.649,5.671,4.352-.438,8.767-.254,13.155-.342q.016.741.033,1.479c-5.072-.028-10.148.079-15.212-.135-2.848-.12-3.425,1.228-3.6,3.669-.186,2.589,1.224,2.8,3.166,2.881,5.217.215,10.43.525,15.644.8Q19.892,20.26,19.877,21.318Z" transform="matrix(0.966, -0.259, 0.259, 0.966, 977.84, 505.133)" fill="#425070"/>
      <path id="Path_698" data-name="Path 698" d="M5.412,10.9C2.2,10.128-.124,8.18.005,5.077A5.407,5.407,0,0,1,5.368,0a5.048,5.048,0,0,1,5.485,5.312C10.881,8.653,8.189,10.01,5.412,10.9Z" transform="matrix(0.966, -0.259, 0.259, 0.966, 1014.97, 549.997)" fill="#3640b0"/>
      <path id="Path_699" data-name="Path 699" d="M.977,0C8.705,2.624,16.54,4.6,24.808,3.964q.458.891.915,1.781C16.521,7.608,8.018,5.65,0,1.035Z" transform="matrix(0.966, -0.259, 0.259, 0.966, 1020.556, 403.15)" fill="#8357db"/>
      <path id="Path_700" data-name="Path 700" d="M.009,4.949,0,2.865C5.548.482,11.157-1.268,17.179,1.185c1.746-.419,2.014,2.055,3.643,1.864a4.97,4.97,0,0,0-2.027,3.8c-.3-3.362-1.99-4.235-5.3-3.6C9.057,4.1,4.51,4.407.009,4.949Z" transform="matrix(0.966, -0.259, 0.259, 0.966, 978.929, 505.081)" fill="#5d6685"/>
      <path id="Path_701" data-name="Path 701" d="M4.544,0c.8,2.45,1.76,4.006,4.389,4.245C7.288,5.889,4.927,6.333,4.926,9.066,3.18,7.352,2.645,5.052,0,4.752,2.47,4.076,3.441,2.311,4.544,0Z" transform="matrix(0.966, -0.259, 0.259, 0.966, 1084.457, 484.576)" fill="#d9bb35"/>
      <path id="Path_702" data-name="Path 702" d="M6.4,3.919c-1.828.989-3.392,1.773-3.467,4.018C-.894,3.971-.894,3.971,2.455,0A8.812,8.812,0,0,0,6.4,3.919Z" transform="matrix(0.966, -0.259, 0.259, 0.966, 1055.784, 476.988)" fill="#296dae"/>
      <path id="Path_703" data-name="Path 703" d="M0,0,15.755,1.928q-.063.626-.125,1.254c-4.256-1-8.766.459-12.95-1.371A5.5,5.5,0,0,1,0,0Z" transform="matrix(0.966, -0.259, 0.259, 0.966, 987.067, 526.635)" fill="#4b5876"/>
      <path id="Path_704" data-name="Path 704" d="M4.969,2.417a2.512,2.512,0,0,1-2.36,2.492A2.249,2.249,0,0,1,.017,2.737,2.28,2.28,0,0,1,2.5,0,2.5,2.5,0,0,1,4.969,2.417Z" transform="matrix(0.966, -0.259, 0.259, 0.966, 1018.899, 538.281)" fill="#e0c230"/>
      <path id="Path_705" data-name="Path 705" d="M55.518,0C62.032,11.585,67.14,23.614,67.24,37.221a451.749,451.749,0,0,1-45.869,4.488c-5.052.259-7.562,2.025-8.655,6.71a39.139,39.139,0,0,1-2.371,6.715A4.471,4.471,0,0,1,5.3,57.877c-2.684-.344-1.88-2.541-2.011-4.1-.645-7.739-2.087-15.549-1.526-23.209C2.308,23.171,1.2,16.138.132,9.025-.382,5.591.548,4.723,3.9,4.471,21.124,3.178,38.384,2.288,55.518,0Z" transform="matrix(0.966, -0.259, 0.259, 0.966, 887.789, 502.004)" fill="#051026"/>
      <path id="Path_706" data-name="Path 706" d="M32.456,0c1.295,3.056,2.488,6.162,3.909,9.159,1.83,3.858.861,6.951-2.7,8.886A85.47,85.47,0,0,0,16.979,29.684c-2.81,2.541-5.943,2.533-9.022.023-2.571-2.1-5.3-4-7.958-5.988C5.683,14.974,14.279,9.625,22.782,4.167Z" transform="matrix(0.966, -0.259, 0.259, 0.966, 815.087, 398.016)" fill="#0d1e47"/>
      <path id="Path_707" data-name="Path 707" d="M25.755,13.041c-.025,7.888-4.865,12.747-12.662,12.711C5.188,25.716-.05,20.5,0,12.712.05,5.031,5.394-.03,13.422,0,21.071.029,25.78,5.009,25.755,13.041Z" transform="matrix(0.966, -0.259, 0.259, 0.966, 866.452, 553.052)" fill="#3640b0"/>
      <path id="Path_708" data-name="Path 708" d="M0,4.989,9.545,0q1.049.6,2.094,1.2C13.4,5.177,17.391,8.056,17.428,12.89c.132,2.128,2.009,3.125,3.035,4.672,1.069,1.609,2.285,3.216.71,5.134-1.68,2.047-3.439.856-5.063-.1C8.943,18.381,3.909,12.2,0,4.989Z" transform="matrix(0.966, -0.259, 0.259, 0.966, 843.063, 506.693)" fill="#0b1b46"/>
      <path id="Path_709" data-name="Path 709" d="M.058,32.359c2.507.228,2.6-1.523,2.914-3.327A86.116,86.116,0,0,1,11.661,2.573c.586-1.086.929-3.329,2.809-2.318,1.572.847-.09,2.249-.5,3.224C8.463,16.407,7.538,30.161,6.832,43.9c-.189,3.673-1.253,5.222-4.814,5.059A54.587,54.587,0,0,1,.058,32.359Z" transform="matrix(0.966, -0.259, 0.259, 0.966, 814.113, 442.602)" fill="#0e1f47"/>
      <path id="Path_710" data-name="Path 710" d="M0,13.5A79.207,79.207,0,0,1,3.305,0C6.293.411,5.941,3.476,7.289,5.187a76.62,76.62,0,0,1,5.539,8.833c1.07,1.824,1.149,3.635-.8,5.021a3.1,3.1,0,0,1-4.617-.626C5.434,15.995,2.688,14.809,0,13.5Z" transform="matrix(0.966, -0.259, 0.259, 0.966, 850.597, 480.158)" fill="#0c1b47"/>
      <path id="Path_711" data-name="Path 711" d="M18.81,17.067C6.471,18.319-.972,11.529.1,0l19.97,16.374C19.9,17.058,19.27,16.908,18.81,17.067Z" transform="matrix(0.966, -0.259, 0.259, 0.966, 873.671, 591.275)" fill="#030202"/>
      <path id="Path_712" data-name="Path 712" d="M5.788,11.692C2.788,8.325.012,4.847,0,0A17.9,17.9,0,0,0,7.02,3.74c2.7.657,4.978,1.981,4.7,4.969C11.387,12.339,8.172,11.462,5.788,11.692Z" transform="matrix(0.966, -0.259, 0.259, 0.966, 854.617, 504.838)" fill="#061028"/>
      <path id="Path_713" data-name="Path 713" d="M7.193,0c1.177,3.71,3.629,5.774,8.08,7-4.421,1.113-6.991,2.906-7.659,7.557C5.494,10.968,4.619,7.215,0,7.241,3.664,5.776,6.124,3.754,7.193,0Z" transform="matrix(0.966, -0.259, 0.259, 0.966, 907.691, 576.772)" fill="#4396e0"/>
      <path id="Path_714" data-name="Path 714" d="M5.672,10.94C2.458,10.437.188,8.721.012,5.85A5.355,5.355,0,0,1,5.028.025C8.259-.262,10.465,1.914,10.7,5.106,10.956,8.543,8.073,9.726,5.672,10.94Z" transform="matrix(0.966, -0.259, 0.259, 0.966, 856.7, 544.051)" fill="#363fb0"/>
      <path id="Path_715" data-name="Path 715" d="M0,3.472,1.262,2.78a5.765,5.765,0,0,1,1.757-.505c1.208.052.514-4.184,3.014-1.222,1.474,1.747,2.889,3.132.087,4.8-.7.305-.793,3.189-1.942.872C3.179,4.708,1.146,4.822,0,3.472Z" transform="matrix(0.966, -0.259, 0.259, 0.966, 895.358, 599.539)" fill="#3171a9"/>
      <path id="Path_716" data-name="Path 716" d="M0,2.59C.13,1.2.792.127,2.205.012A2.311,2.311,0,0,1,4.861,2.533a2.264,2.264,0,0,1-2.422,2.3A2.229,2.229,0,0,1,0,2.59Z" transform="matrix(0.966, -0.259, 0.259, 0.966, 854.68, 561.335)" fill="#e0c230"/>
      <path id="Path_717" data-name="Path 717" d="M27.449.147C23.166,11.779,12.9,16.449,2.817,21.339,1.289,22.079.46,21.619,0,20.11a1.815,1.815,0,0,1,2.226-1.923c8.4-3.613,14.742-10,21.5-15.834C24.8,1.422,25.371-.553,27.449.147Z" transform="matrix(0.966, -0.259, 0.259, 0.966, 1011.869, 335.326)" fill="#081227"/>
      <path id="Path_718" data-name="Path 718" d="M6.665,1.8l-.168.91.067-.061c-1.63.085-3.72-1.048-2.585,2.618a34.662,34.662,0,0,1-.3,21.3c-.392-.324-.988-.44-1.085-1.064C3.418,17.666,5.743,9.7.334,2.44-.689,1.067.895.652,1.645,0Q4.155.9,6.665,1.8Z" transform="matrix(0.966, -0.259, 0.259, 0.966, 935.075, 348.392)" fill="#424f6f"/>
      <path id="Path_719" data-name="Path 719" d="M9.3,1.24Q8.194,2.2,7.081,3.165q-3.542.9-7.081,1.8C3.034-.459,4.386-1,9.3,1.24Z" transform="matrix(0.966, -0.259, 0.259, 0.966, 1009.417, 353.527)" fill="#3746b3"/>
      <path id="Path_720" data-name="Path 720" d="M.531,4.488Q.265,2.244,0,0C8.491,5.056,17.417,7.208,27.61,3.719c-.39,3.589-2.147,5.527-5.041,6.4C13.816,12.749,5.32,10.534.531,4.488Z" transform="matrix(0.966, -0.259, 0.259, 0.966, 907.15, 354.808)" fill="#030304"/>
      <path id="Path_721" data-name="Path 721" d="M39.984,22.395l1.085,1.064c-5.714,1.58-11.664.734-17.439,1.7-2.074.345-2.674-1.332-3.457-2.666a110.991,110.991,0,0,0-8.7-13.035C8.389,5.574,4.964,2.163,0,.775,1.8-1.11,3.14,1,4.685,1.3,12.03,5.765,16.178,12.966,20.344,20.046c1.594,2.709,3.247,3.772,6.368,3.37C31.106,22.849,35.557,22.714,39.984,22.395Z" transform="matrix(0.966, -0.259, 0.259, 0.966, 899.768, 361.072)" fill="#2f3c61"/>
      <path id="Path_724" data-name="Path 724" d="M5.088,9.537C1.97,9.517.108,8.221.005,5.074-.1,1.812,1.472.007,4.807,0,7.893-.006,9.464,1.638,9.516,4.689S8,9.357,5.088,9.537Z" transform="matrix(0.966, -0.259, 0.259, 0.966, 819.562, 374.281)" fill="#e8b770"/>
      <path id="Path_726" data-name="Path 726" d="M.388,0C.546.011.7.017.861.035,3.259.3,6.914-.9,7.446,2.064,7.912,4.653,4.83,6.39,2.285,7.478,2.248,4.834-1.119,3.036.388,0Z" transform="matrix(0.966, -0.259, 0.259, 0.966, 855.674, 355.878)" fill="#151008"/>
      <path id="Path_727" data-name="Path 727" d="M8.661,5.651A17.437,17.437,0,0,1,2,7.535,3.428,3.428,0,0,1,0,4.659L10.5,0Z" transform="matrix(0.966, -0.259, 0.259, 0.966, 852.442, 375.477)" fill="#bb8130"/>
      <path id="Path_728" data-name="Path 728" d="M7.623,3.94A25.025,25.025,0,0,1,.1,5.182C-.736,2.1,4.093,3.162,3.506,0,4.746,1.792,5.814,3.277,7.623,3.94Z" transform="matrix(0.966, -0.259, 0.259, 0.966, 868.713, 369.73)" fill="#c2a54a"/>
      <path id="Path_729" data-name="Path 729" d="M18.3,0c.513,6.967,1.279,13.595,1.431,20.237.3,13.335,5.159,24.969,12.364,35.905,8.37,12.7,17.019,25.25,23.521,39.078,1.617,3.44,2.725,7.167,4.682,10.388,3.889,6.4,1.4,11.317-2.955,16.027-.527.57-1.059,1.33-1.732,1.536-1.917.587-11.115-4.5-11.8-6.46C39.378,104.052,32.8,92.5,25.562,81.288c-2.323-3.6-4.57-7.247-7.056-10.728C6.55,53.816.087,35.355.012,14.619-.022,5.1-.447,5.154,8.761,2.9,11.818,2.156,14.792,1.079,18.3,0Z" transform="matrix(0.966, -0.259, 0.259, 0.966, 889.406, 396.437)" fill="#0a1b45"/>
      <path id="Path_730" data-name="Path 730" d="M25.391,0C36.985,16.7,47.336,34.07,52.209,54.056c2.1,8.624,1.815,17.033-5.817,23.522-2.151,1.828-3.753,2.029-5.434-.328-.091-.126-.246-.206-.339-.332-6.033-8.187-13.455-8.959-21.93-4.111Q15.743,63.995,12.8,55.183c.773-2.659-.408-4.936-1.464-7.21-2.721-5.86-6.09-11.37-9.257-16.99-1.048-1.861-2.69-3.61-1.838-6.074C10.629,20.317,18.389,13.051,22.9,2.516,23.416,1.314,23.871.158,25.391,0Z" transform="matrix(0.966, -0.259, 0.259, 0.966, 951.902, 420.622)" fill="#bfc5cd"/>
      <path id="Path_731" data-name="Path 731" d="M16.591,0c9.316-.115,14.951,4.463,15.961,11.434a14.168,14.168,0,0,1-10.9,15.628c-4.638,1.01-9.385,1.511-14.066,2.337-1.525.269-2.388-.017-2.715-1.666C3.327,19.958,1.8,12.179.106,4.437c-.5-2.284.843-2.324,2.3-2.522C7.746,1.192,13.086.475,16.591,0Z" transform="matrix(0.966, -0.259, 0.259, 0.966, 872.194, 373.834)" fill="#0d1e47"/>
      <path id="Path_732" data-name="Path 732" d="M0,5.877V0C5.169,3.26,9.81,6.539,14.766,9.239c11.078,6.038,22.615,10.2,35.5,6.45,3.787-1.1,3.026,2.3,3.926,3.9,1.271,2.27-.725,2.63-2.221,3.048-11.062,3.088-21.66,1.185-32.069-2.97C13.243,17.014,7.3,13.06,1.147,9.5.211,8.465.213,7.138,0,5.877Z" transform="matrix(0.966, -0.259, 0.259, 0.966, 959.186, 358.385)" fill="#061026"/>
      <path id="Path_733" data-name="Path 733" d="M3.267,0A189.746,189.746,0,0,1,17.739,25.891c1.236,2.579.4,3.652-1.911,4.383C10.779,21.384,5.767,12.474.664,3.616-1.267.264,1.45.517,3.267,0Z" transform="matrix(0.966, -0.259, 0.259, 0.966, 955.422, 445.467)" fill="#49278e"/>
      <path id="Path_734" data-name="Path 734" d="M26.982,55.225c1.061.664.562,1.33,0,2a5.8,5.8,0,0,1-6.55,1.684,2.376,2.376,0,0,1-1.34-1.88c3.853-.436,4.522-2.239,3.53-6-4.153-15.76-11-30.274-19.435-44.121C2.13,5.161,1.2,3.336.216,1.548A1.262,1.262,0,0,1,.322,0c10.783,16.083,19.373,33.166,24,52.1C24.624,53.328,23.776,56.2,26.982,55.225Z" transform="matrix(0.966, -0.259, 0.259, 0.966, 953.856, 449.717)" fill="#5b6682"/>
      <path id="Path_735" data-name="Path 735" d="M.816.193A18.963,18.963,0,0,1,4.67,6.674q7.521,18.485,15,36.988c.39.966,1.263,1.92.161,3.5C12.952,31.649,7.972,15.615.155.812Q-.356-.4.816.193Z" transform="matrix(0.966, -0.259, 0.259, 0.966, 909.513, 369.395)" fill="#586481"/>
      <path id="Path_736" data-name="Path 736" d="M.3,38.742c.521-7.359,1-14.72,1.575-22.074C2.313,11.027,3.076,5.378.479,0L.411.061c3.4,1.4,3.269,4.528,3.153,7.275C3.209,15.713,2.574,24.079,2,32.447c-.194,2.839-.525,5.669-.794,8.5C-.651,40.856.151,39.664.3,38.742Z" transform="matrix(0.966, -0.259, 0.259, 0.966, 941.64, 349.379)" fill="#5b6783"/>
      <path id="Path_737" data-name="Path 737" d="M8.628,22.5C3.9,15.73.629,8.385,0,0,1.854,7.838,5.591,14.847,9.355,21.844Q9.854,23.127,8.628,22.5Z" transform="matrix(0.966, -0.259, 0.259, 0.966, 923.006, 416.238)" fill="#5d6984"/>
      <path id="Path_738" data-name="Path 738" d="M12.827,18.478c-.035.516-.071,1.031-.106,1.547C8.26,13.716,3.823,7.389,0,.659L.727,0Z" transform="matrix(0.966, -0.259, 0.259, 0.966, 936.994, 435.105)" fill="#525f7c"/>
      <path id="Path_739" data-name="Path 739" d="M1.3,0l.911,2.207C1.492,7.418,1.905,12.778.1,17.866A74.947,74.947,0,0,1,1.3,0Z" transform="matrix(0.966, -0.259, 0.259, 0.966, 950.692, 387.062)" fill="#65708a"/>
      <path id="Path_740" data-name="Path 740" d="M8.548,0,9.767.9C7.295,3.977,4.219,4.706.585,3.265A2.181,2.181,0,0,1,0,2.708C2.4.391,5.479.21,8.548,0Z" transform="matrix(0.966, -0.259, 0.259, 0.966, 978.804, 502.07)" fill="#55617e"/>
      <path id="Path_741" data-name="Path 741" d="M6.57,7.155,0,.978.885,0A20.37,20.37,0,0,1,7.231,6.536,6.046,6.046,0,0,0,6.57,7.155Z" transform="matrix(0.966, -0.259, 0.259, 0.966, 901.674, 364.928)" fill="#515e7b"/>
      <path id="Path_742" data-name="Path 742" d="M1.244,3.069,10.426.706,17.1,0q.042,1.965.082,3.929A81.61,81.61,0,0,1,0,5.61Z" transform="matrix(0.966, -0.259, 0.259, 0.966, 978.219, 502.431)" fill="#d7dbe2"/>
      <path id="Path_743" data-name="Path 743" d="M2.65,0A2.552,2.552,0,0,1,5.457,2.562a2.469,2.469,0,0,1-2.4,2.933A2.537,2.537,0,0,1,0,2.732C-.016,1.031.966.15,2.65,0Z" transform="matrix(0.966, -0.259, 0.259, 0.966, 1018.214, 551.94)" fill="#1c69e4"/>
      <path id="Path_744" data-name="Path 744" d="M8.568,4.277c-.319,2.753-1.7,4.264-4.305,4.234C1.431,8.477-.119,6.87.007,4.04.135,1.172,1.906-.181,4.694.019,7.355.21,8.421,1.971,8.568,4.277Z" transform="matrix(0.966, -0.259, 0.259, 0.966, 877.035, 559.143)" fill="#1c69e5"/>
      <path id="Path_745" data-name="Path 745" d="M2.708,5.5A2.575,2.575,0,0,1,0,2.81,2.511,2.511,0,0,1,3.01.012,2.486,2.486,0,0,1,5.478,2.9,2.537,2.537,0,0,1,2.708,5.5Z" transform="matrix(0.966, -0.259, 0.259, 0.966, 859.803, 546.079)" fill="#1c69e4"/>
      <path id="Path_746" data-name="Path 746" d="M3.323,11.512c-.819.539-1.745.382-1.9-.484C.831,7.623.376,4.189.006.751-.079-.035.8-.041,1.443.026,4.673,3.429,4.81,7.338,3.323,11.512Z" transform="matrix(0.966, -0.259, 0.259, 0.966, 883.699, 379.712)" fill="#f3d0d2"/>
      <path id="Path_747" data-name="Path 747" d="M1.041.285c6.1-1.467,3.227,3.092,3.653,5.435a2.461,2.461,0,0,1-3.2.449C-.434,4.345-.4,2.368,1.041.285Z" transform="matrix(0.966, -0.259, 0.259, 0.966, 886.709, 378.646)" fill="#444d6c"/>
      <path id="Path_748" data-name="Path 748" d="M1.731.15C2.16,2.106.773,4.667,3.618,5.818c1.558,1.894,1.246,3.769-.058,5.633l-1.744.062A34.552,34.552,0,0,1,0,0Z" transform="matrix(0.966, -0.259, 0.259, 0.966, 886.078, 378.956)" fill="#efd7da"/>
      <path id="Path_749" data-name="Path 749" d="M0,6.048Q.03,3.231.058.414C.543-.462,1.248.351,1.825.182,1.291,2.16,5.082,5.483,0,6.048Z" transform="matrix(0.966, -0.259, 0.259, 0.966, 890.915, 383.255)" fill="#e0aeb4"/>
      <path id="Path_750" data-name="Path 750" d="M1.05,0q.908,5.757,1.816,11.513l-.987.114Q.94,5.884,0,.14Z" transform="matrix(0.966, -0.259, 0.259, 0.966, 885.063, 379.229)" fill="#d65a63"/>
    </g>
    <path id="Path_2608" data-name="Path 2608" d="M5.833,10.06C5.133,7.325,3.658,5.776,0,5.391,3.224,4.153,5.326,2.947,5.767,0c.985,2.445,2.082,4.515,5.082,4.875C8.577,6.065,6.364,7.148,5.833,10.06Z" transform="matrix(0.966, -0.259, 0.259, 0.966, 1239.331, 465.714)" fill="#4397e1"/>
    <path id="Path_2609" data-name="Path 2609" d="M3.181,0C3.74,1.715,4.413,2.8,6.254,2.972,5.1,4.123,3.449,4.434,3.449,6.347,2.227,5.147,1.851,3.537,0,3.326,1.729,2.853,2.409,1.618,3.181,0Z" transform="matrix(0.966, -0.259, 0.259, 0.966, 1191.002, 368.357)" fill="#d9bb35"/>
    <path id="Path_2615" data-name="Path 2615" d="M4.544,0c.8,2.45,1.76,4.006,4.389,4.245C7.288,5.889,4.927,6.333,4.926,9.066,3.18,7.352,2.645,5.052,0,4.752,2.47,4.076,3.441,2.311,4.544,0Z" transform="matrix(0.966, -0.259, 0.259, 0.966, 811.352, 268.471)" fill="#d9bb35"/>
    <path id="Path_2624" data-name="Path 2624" d="M4.544,0c.8,2.45,1.76,4.006,4.389,4.245C7.288,5.889,4.927,6.333,4.926,9.066,3.18,7.352,2.645,5.052,0,4.752,2.47,4.076,3.441,2.311,4.544,0Z" transform="matrix(0.966, -0.259, 0.259, 0.966, 1055.783, 192.148)" fill="#d9bb35"/>
    <path id="Path_2626" data-name="Path 2626" d="M4.544,0c.8,2.45,1.76,4.006,4.389,4.245C7.288,5.889,4.927,6.333,4.926,9.066,3.18,7.352,2.645,5.052,0,4.752,2.47,4.076,3.441,2.311,4.544,0Z" transform="matrix(0.966, -0.259, 0.259, 0.966, 582.55, 629.209)" fill="#d9bb35"/>
    <path id="Path_2620" data-name="Path 2620" d="M4.544,0c.8,2.45,1.76,4.006,4.389,4.245C7.288,5.889,4.927,6.333,4.926,9.066,3.18,7.352,2.645,5.052,0,4.752,2.47,4.076,3.441,2.311,4.544,0Z" transform="matrix(0.966, -0.259, 0.259, 0.966, 1273.986, 316.566)" fill="#d9bb35"/>
    <path id="Path_2610" data-name="Path 2610" d="M4.481,2.744C3.2,3.436,2.106,3.985,2.054,5.557-.626,2.78-.626,2.78,1.719,0A6.169,6.169,0,0,0,4.481,2.744Z" transform="matrix(0.966, -0.259, 0.259, 0.966, 1233.263, 481.046)" fill="#296dae"/>
    <path id="Path_2613" data-name="Path 2613" d="M6.4,3.919c-1.828.989-3.392,1.773-3.467,4.018C-.894,3.971-.894,3.971,2.455,0A8.812,8.812,0,0,0,6.4,3.919Z" transform="matrix(0.966, -0.259, 0.259, 0.966, 646.244, 346.346)" fill="#296dae"/>
    <path id="Path_2625" data-name="Path 2625" d="M6.4,3.919c-1.828.989-3.392,1.773-3.467,4.018C-.894,3.971-.894,3.971,2.455,0A8.812,8.812,0,0,0,6.4,3.919Z" transform="matrix(0.966, -0.259, 0.259, 0.966, 890.688, 161.561)" fill="#296dae"/>
    <path id="Path_2618" data-name="Path 2618" d="M6.4,3.919c-1.828.989-3.392,1.773-3.467,4.018C-.894,3.971-.894,3.971,2.455,0A8.812,8.812,0,0,0,6.4,3.919Z" transform="matrix(0.966, -0.259, 0.259, 0.966, 1252.784, 237.006)" fill="#296dae"/>
    <path id="Path_2629" data-name="Path 2629" d="M6.4,3.919c-1.828.989-3.392,1.773-3.467,4.018C-.894,3.971-.894,3.971,2.455,0A8.812,8.812,0,0,0,6.4,3.919Z" transform="matrix(0.966, -0.259, 0.259, 0.966, 429.784, 475.482)" fill="#296dae"/>
    <path id="Path_2611" data-name="Path 2611" d="M3.478,1.692A1.759,1.759,0,0,1,1.826,3.437,1.575,1.575,0,0,1,.012,1.916,1.6,1.6,0,0,1,1.751,0,1.751,1.751,0,0,1,3.478,1.692Z" transform="matrix(0.966, -0.259, 0.259, 0.966, 1338.875, 593.956)" fill="#e0c230"/>
    <path id="Path_2616" data-name="Path 2616" d="M4.969,2.417a2.512,2.512,0,0,1-2.36,2.492A2.249,2.249,0,0,1,.017,2.737,2.28,2.28,0,0,1,2.5,0,2.5,2.5,0,0,1,4.969,2.417Z" transform="matrix(0.966, -0.259, 0.259, 0.966, 752.31, 387.854)" fill="#e0c230"/>
    <path id="Path_2621" data-name="Path 2621" d="M4.969,2.417a2.512,2.512,0,0,1-2.36,2.492A2.249,2.249,0,0,1,.017,2.737,2.28,2.28,0,0,1,2.5,0,2.5,2.5,0,0,1,4.969,2.417Z" transform="matrix(0.966, -0.259, 0.259, 0.966, 1449.899, 355.299)" fill="#e0c230"/>
    <path id="Path_2628" data-name="Path 2628" d="M4.969,2.417a2.512,2.512,0,0,1-2.36,2.492A2.249,2.249,0,0,1,.017,2.737,2.28,2.28,0,0,1,2.5,0,2.5,2.5,0,0,1,4.969,2.417Z" transform="matrix(0.966, -0.259, 0.259, 0.966, 519.899, 320.57)" fill="#e0c230"/>
    <path id="Path_2612" data-name="Path 2612" d="M5.036,0c.824,2.6,2.541,4.042,5.657,4.9C7.6,5.68,5.8,6.936,5.33,10.192,3.846,7.679,3.234,5.051,0,5.069,2.565,4.044,4.288,2.628,5.036,0Z" transform="matrix(0.966, -0.259, 0.259, 0.966, 1261.02, 620.903)" fill="#4396e0"/>
    <path id="Path_2617" data-name="Path 2617" d="M7.193,0c1.177,3.71,3.629,5.774,8.08,7-4.421,1.113-6.991,2.906-7.659,7.557C5.494,10.968,4.619,7.215,0,7.241,3.664,5.776,6.124,3.754,7.193,0Z" transform="matrix(0.966, -0.259, 0.259, 0.966, 641.102, 426.346)" fill="#4396e0"/>
    <path id="Path_2627" data-name="Path 2627" d="M7.193,0c1.177,3.71,3.629,5.774,8.08,7-4.421,1.113-6.991,2.906-7.659,7.557C5.494,10.968,4.619,7.215,0,7.241,3.664,5.776,6.124,3.754,7.193,0Z" transform="matrix(0.966, -0.259, 0.259, 0.966, 795.592, 700.932)" fill="#4396e0"/>
    <path id="Path_2622" data-name="Path 2622" d="M7.193,0c1.177,3.71,3.629,5.774,8.08,7-4.421,1.113-6.991,2.906-7.659,7.557C5.494,10.968,4.619,7.215,0,7.241,3.664,5.776,6.124,3.754,7.193,0Z" transform="matrix(0.966, -0.259, 0.259, 0.966, 1338.691, 393.79)" fill="#4396e0"/>
  </g>
</svg>
