<svg xmlns="http://www.w3.org/2000/svg" xmlns:xlink="http://www.w3.org/1999/xlink" width="200" height="84" viewBox="0 0 200 84">
  <defs>
    <clipPath id="clip-path">
      <rect id="Rectangle_473" data-name="Rectangle 473" width="200" height="84" rx="10" transform="translate(-1378 9848)" fill="#ff8f4b"/>
    </clipPath>
  </defs>
  <g id="Mask_Group_9" data-name="Mask Group 9" transform="translate(1378 -9848)" clip-path="url(#clip-path)">
    <g id="Group_1222" data-name="Group 1222" transform="translate(-1449.058 9708.979)">
      <path id="Path_1543" data-name="Path 1543" d="M253.047,195.377c13.712,1.282,26.121-18.374,38.6-12.817,12.606,5.612,7.367,25.535,14.937,36.654,6.167,9.059,18.4,12.745,24.771,21.673,7.223,10.12,16.283,21.395,14.626,33.528-1.665,12.191-17.558,17.979-23.174,29.05-6.15,12.122-2.049,28.183-11.106,38.521-9.013,10.289-23.931,14.244-37.667,17.153a93.968,93.968,0,0,1-41.912-.3C218.676,355.5,207.64,347.113,196.06,339.8c-11.945-7.547-25.625-13.537-33.524-24.926-8-11.528-15.013-26.243-11.216-39.576,4.059-14.253,21.405-20.73,31.568-31.886,6.648-7.3,14.56-13.8,18.248-22.8,5.987-14.611-4.891-38.465,9.78-45.6,14.183-6.893,26.284,18.883,42.131,20.364" transform="translate(-31.362 -49.609)" fill="#ff6968"/>
      <path id="Path_1544" data-name="Path 1544" d="M253.047,195.377c13.712,1.282,26.121-18.374,38.6-12.817,12.606,5.612,7.367,25.535,14.937,36.654,6.167,9.059,18.4,12.745,24.771,21.673,7.223,10.12,16.283,21.395,14.626,33.528-1.665,12.191-17.558,17.979-23.174,29.05-6.15,12.122-2.049,28.183-11.106,38.521-9.013,10.289-23.931,14.244-37.667,17.153a93.968,93.968,0,0,1-41.912-.3C218.676,355.5,207.64,347.113,196.06,339.8c-11.945-7.547-25.625-13.537-33.524-24.926-8-11.528-15.013-26.243-11.216-39.576,4.059-14.253,21.405-20.73,31.568-31.886,6.648-7.3,14.56-13.8,18.248-22.8,5.987-14.611-4.891-38.465,9.78-45.6,14.183-6.893,26.284,18.883,42.131,20.364" transform="translate(-150.259 -37.189)" fill="#b53bfe"/>
      <path id="Path_1545" data-name="Path 1545" d="M273.763,138.96c14.819-.762,32.64-1.458,43.109,8.557,11.516,11.017,7.886,29.647,12.431,44.576,2.853,9.369,4.943,18.76,9.512,27.491,5.415,10.347,15.9,17.692,19.854,28.622,4.777,13.208,14.929,30.533,5.372,41.131-10.595,11.75-32.088,2.154-47.849,5.976-9.85,2.388-18.38,7.572-27.283,12.241-12.061,6.325-21.166,21.946-34.83,20.334-13.143-1.55-16.618-19.244-26.558-27.576-8.963-7.513-23.93-8.929-29.178-19.142-5.311-10.335,4.766-22.937,1.821-34.1-3.566-13.509-19.377-22.568-20.445-36.461-1.07-13.914,5.1-28.39,14.643-38.978,9.567-10.616,24.832-14.24,38.318-19.789,13.382-5.507,26.528-12.138,41.084-12.886" transform="translate(-147.411 -113.353)" fill="#7a54fc"/>
      <path id="Path_1546" data-name="Path 1546" d="M314.729,205.1c15.272.1,25.191-26.431,39.453-21.229,13.793,5.031,2.449,29.526,12.216,40.076,9.612,10.384,32.968,3.765,39.716,16.025,6.207,11.278-4.665,25.064-10.9,36.326-5.286,9.546-18.919,13.6-22.428,23.86-4.758,13.913,7.581,31.012-.577,43.412-7.225,10.982-24.152,11.629-37.45,14.388-13.334,2.766-28.276,7.643-40.451,1.773-12.705-6.126-17.323-21.106-24.233-32.963-5.117-8.78-6.326-18.914-11.191-27.823-4.631-8.483-14.85-14.052-16.794-23.431-1.95-9.406,2.975-18.742,6.168-27.835,3.175-9.042,8.913-16.756,12.6-25.62,5.346-12.843.4-34.37,14.176-38.706,14.654-4.613,24.261,21.646,39.7,21.747" transform="translate(-87.109 -182.812)" fill="#ff8f4b"/>
    </g>
  </g>
</svg>
