<svg xmlns="http://www.w3.org/2000/svg" width="20.055" height="16.295" viewBox="0 0 20.055 16.295">
  <path id="twitter" d="M20.055,49.929a8.572,8.572,0,0,1-2.369.649A4.088,4.088,0,0,0,19.5,48.306a8.217,8.217,0,0,1-2.607,1,4.111,4.111,0,0,0-7.112,2.812,4.233,4.233,0,0,0,.1.938A11.638,11.638,0,0,1,1.4,48.75a4.113,4.113,0,0,0,1.263,5.5A4.06,4.06,0,0,1,.8,53.738v.045A4.13,4.13,0,0,0,4.1,57.823a4.1,4.1,0,0,1-1.078.135,3.635,3.635,0,0,1-.778-.07,4.151,4.151,0,0,0,3.842,2.864,8.261,8.261,0,0,1-5.1,1.754A7.7,7.7,0,0,1,0,62.45a11.575,11.575,0,0,0,6.307,1.845,11.622,11.622,0,0,0,11.7-11.7c0-.182-.006-.357-.015-.531A8.2,8.2,0,0,0,20.055,49.929Z" transform="translate(0 -48)" fill="#03a9f4"/>
</svg>
